<?xml version="1.0"?>
<svg width="612.54211" height="723.61865" xmlns="http://www.w3.org/2000/svg" xmlns:svg="http://www.w3.org/2000/svg">
 <g class="layer">
  <title>Layer 1</title>
  <path d="m468.11,123.82l4.33,1.6l2.01,-5.29l1.17,-0.36l0.37,-3.37l2.42,-6.42l0.27,-1.79l0.98,-0.97l1.07,-1.77l0.62,-0.21l0.71,-0.74l0.22,-2.02l0.27,-0.53l1.55,-0.66l2.19,-1.47l0.17,-0.32l1.12,-0.29l1.4,-1.34l0.09,-0.93l2.68,-0.52l2.67,-0.87l1.42,0.02l1.33,-0.34l4.29,1.87l1.11,0.06l1.06,2.05l-0.06,0.53l0.6,0.02l2.34,4.09l1.14,3.18l2.01,-0.87l0.38,0.06l0.69,1.18l0,1l0.49,1.92l1.32,0l2.04,1.79l0.79,1.05l0.71,0.27l1.06,2.92l0.7,0.55l0.36,1.24l0.68,0.34l0.04,1.81l6.53,-2.97l2.72,-0.74l6.57,0.35l1.25,0.84l0.79,1.13l6.81,6.99l3.13,3.6l2.5,2.34l9.02,10.29l7.53,7.58l4.51,6.22l8.2,12.39l0.19,-0.05l1.34,1.38l3.34,0.89l-4.49,10.91l3.76,0.4l0.49,1.85l0.59,-0.05l2.34,3.43l0.41,0.15l0.62,0.89l0.43,0.13l0.64,-0.36l0.18,0.1l-0.4,1.23l-0.14,1.49l3.18,-0.16l0,0l-3.31,7.5l0.02,2.95l-2.8,39.95l0.13,0.6l-2.2,2.6l-0.97,-0.6l-1.17,0.05l-2.56,-0.62l-0.8,-0.55l-0.42,-0.62l-1.92,0.13l-1.47,-0.99l-1.23,-0.39l-1.09,1.15l-1.25,-0.13l-1.05,1.06l-1.2,-0.15l-1.47,0.41l-1.24,-0.54l-0.31,-0.37l-1.4,0.03l-0.45,-1.59l-1.71,-0.49l-0.42,0.07l-0.8,-0.59l-2.5,0.26l-1.13,-0.94l-1.69,1.04l-1.27,-0.05l-0.53,0.23l-2.35,-0.88l-0.64,0.15l-1.63,0.99l-2.38,-0.39l-0.5,-0.57l-1.63,0.18l-0.53,-0.47l-0.85,-0.05l-1.19,0.24l-0.9,0.49l-0.52,0.83l-1.44,-0.52l-0.87,0.65l-0.33,-0.47l-1.4,0.6l-2.15,2.29l-0.63,0.96l-1.49,0.73l-0.6,1.07l0,0l-1.82,-0.11l0.57,-1.61l-0.32,-0.54l1.02,-1.12l-0.23,-0.52l-0.33,-0.11l0.81,-1.84l-5.4,-1.88l-9.63,-4.58l-10.1,2.27l-1.3,0.73l-4.73,3.9l-0.11,0.49l0.35,3.02l0.49,1.46l0.44,4.36l-0.23,0.45l-0.37,0l-0.08,-0.55l-0.36,-0.03l-0.27,-0.65l-0.71,-0.05l-0.43,-0.8l-1,0l-0.95,-0.42l-1.01,-0.05l-0.33,0.28l-1.2,-0.13l-0.18,-0.41l-0.66,-0.26l0.03,-0.65l-0.7,-0.37l-0.61,1.93l-0.51,0.54l-1.74,0.52l-0.93,-0.15l-0.95,-0.6l-0.53,-0.68l0.05,-1.01l-0.43,-0.42l-0.17,-0.59l-0.44,0.8l-0.95,0.7l-0.11,0.6l-0.46,0.37l-1.43,-0.73l-0.5,0.91l-1.51,-0.05l-0.39,0.67l-1.43,0.76l-0.22,-0.06l-0.14,-0.72l-0.4,0l-0.58,-0.78l-0.08,-0.84l-0.47,-0.8l0.15,-1.07l-0.68,-0.96l-0.26,-1.27l-1,-1.25l0.16,-0.34l-0.7,-0.52l-0.49,0.05l-0.32,-0.34l-0.09,-0.54l-1.44,-0.86l-0.4,-0.52l-1.23,-0.44l-1.17,-1.05l-0.05,-1.17l0.43,-0.52l-0.54,-0.93l-0.95,0.05l-1.96,0.93l-1.21,0.08l-0.57,0.84l-0.53,0.07l-0.46,-0.26l-0.97,-1.32l-0.58,-0.08l-0.7,0.88l-0.43,0.08l-0.8,-0.52l-0.54,-0.73l-1.13,-0.08l-0.93,-0.7l-0.84,-1.41l0,0l-0.87,0.08l0,0l-1.2,-0.6l-0.17,-0.36l-0.45,0.16l-1.42,-0.81l-0.17,-0.68l-1.26,0.47l-0.85,0.03l-0.85,1.17l-2.03,-0.24l-0.38,-0.44l-1.22,0.5l-0.76,-1.57l-0.52,-0.49l-0.2,0.13l-0.54,-0.34l-0.98,-1.3l-0.81,-2.81l-1.79,-3.91l-3.2,-8.24l0.72,-1.25l0.34,-0.24l3.64,-0.88l3.07,-1.54l0.19,-1.26l5.16,-5.71l-1.03,-1.04l-3,-4.13l-1.13,-0.63l-5.61,-6.53l-0.79,-1.04l-0.35,-1.02l-1.21,-1.57l0,0l6.67,-5.15l6.64,-4.27l4.21,-5.86l2.01,-1.59l0.73,-1.42l1.15,-0.73l1,-0.08l6.5,0.63l4.97,5.1l9.37,-6.7l5.52,-10.45l-10.35,-16.08l0.69,-8.93l-9.44,-3.57l1.29,-3.52z" fill="#b6bac1" id="NL-DR"/>
  <path d="m327.35,271.52l-0.63,-0.23l-0.05,-0.52l0.32,-0.34l0.4,-2.08l2.06,-4.91l1.23,-1.22l2.61,-1.27l0.33,-0.6l-0.03,-0.52l-1.82,-5.61l-8.78,-14.14l0,0l0.36,-0.26l0,0l8.85,14.14l1.87,6.05l-0.4,1.27l-2.98,1.4l-0.93,1.04l-2.1,5.11l-0.31,2.69zm45.04,-80.51l1.58,0.31l1.25,1.23l1.08,-0.44l-0.98,-2.95l3.17,0.97l5.73,5.8l0.98,3.79l0.59,-0.34l0,0l1.41,2.51l2.14,1.88l0.03,0.5l2.9,0l0.33,0.23l1.87,0.34l1.39,0.68l3.1,2.14l0.93,1.3l1.61,1.38l0.95,0.6l0.57,0.03l3.05,2.9l0.57,0.89l1.12,2.89l1.6,5.53l1.11,0.57l0.54,0.94l0,0.91l0.32,-0.03l0.52,0.42l0.68,1.51l0.03,0.91l-0.41,0.68l-0.51,0.08l-0.9,1.07l-1.47,1.02l-1.79,2.03l0.06,0.89l0.38,0.44l0.68,0.08l0.02,-0.36l2.11,0.83l1.09,0.08l1.53,0.52l2.52,2.21l2.58,0.7l1.88,1.87l0.4,0.65l0.03,0.39l-0.82,0.96l-3.56,2.37l-5.24,1.14l-0.24,0.57l-3.64,2.05l-2.34,0.29l-0.79,-0.86l-1.27,-0.49l-9.32,2.05l-0.82,0.34l-0.43,0.7l-9.38,-0.03l-0.06,6.86l3.73,-0.05l1.46,0.26l6.74,7.19l0.49,1.48l1.25,7.14l0,0l-1.09,4.85l-0.98,1.43l-0.41,2.49l-1,2.75l0.02,0.49l-0.3,0.31l-1.11,-0.36l-0.44,0.21l-2.21,4.22l-0.05,0.29l0.9,1.32l-1.74,2.54l-0.33,1.01l-3.08,3.03l-1.25,0.75l-3.37,3.11l-0.57,0.16l-0.19,0.36l-2.47,1.99l-0.41,-0.03l-0.6,-0.54l-0.33,0.08l-0.09,0.36l0.27,0.49l-0.81,0.65l-0.38,0.65l-1.14,0.83l-1.74,0.7l-1.33,1.29l-1.49,0.44l-1.47,-0.03l-4.32,3.7l-0.76,-0.8l-0.57,-0.18l-3.92,1.86l-1.08,0.88l-0.73,-0.9l-0.54,-0.08l-2.29,0.49l-0.4,0.39l-1.85,2.87l-5.24,16.19l-1.06,2.89l-0.58,0.83l-17.58,5.03l-2.34,0.9l0,0l-3.07,-2.63l-8.04,-7.95l0,0l-3.81,-3.77l-4.65,-3.07l-9.73,-2.45l-11,1.88l-1.08,-0.62l-1.16,-1.45l0,0l0.22,-0.21l-0.27,-0.49l1.08,-0.98l-1.41,-1.34l-0.41,-0.03l-0.17,0.21l-0.13,-0.23l0.49,-0.54l0.17,-0.7l-0.27,-5.01l-1.63,-3.1l0.03,-1.53l5.41,-3.26l0.81,-1.86l7.18,-4.24l1.87,-0.05l0.73,-0.39l0.49,-0.34l0.97,-1.71l3.2,-1.97l20.44,-14.4l1.6,-0.23l0.98,-0.57l6.12,-5.5l0.3,-0.99l-0.51,-0.88l-0.09,-1.22l-0.41,0.23l-0.57,-0.03l0.14,-1.38l0.6,-0.16l0.14,0.39l0.19,-0.42l0.73,-0.21l0.74,-0.67l1.41,-3.27l1.03,-1.35l4.81,-0.29l0.67,-0.29l5.36,-5.12l0.17,-0.26l-0.65,-0.7l0.55,-0.55l0.57,0.52l-0.24,0.18l0.19,0.16l4.48,-4.6l10.59,-3.07l1.49,-1.33l0.46,0l1.57,-1.56l-5,-8.06l-2.83,-2.08l-0.06,-0.23l0.58,-0.21l-0.74,-0.96l-1,0.18l0.27,-26.71l10.57,-17.2l0.98,-0.6l6.25,-0.78l0.46,-0.08l0.16,-0.33z" fill="#b6bac1" id="NL-FL"/>
  <path d="m349.82,192.76l0.1,0.34l-0.33,0.03l-1.41,-0.55l0.22,-0.24l0.92,0l0.5,0.42zm-6.47,-1.17l-0.7,-0.31l0.17,-0.13l0.52,0.18l0,0.26l0.01,0zm-19.24,-31.03l-0.22,-0.26l0.16,-0.52l0.27,0.31l-0.21,0.47zm-1.38,-10.49l-0.3,-0.87l0.13,-0.18l0.3,0.89l-0.13,0.16zm-4.49,-21.71l0.41,0.76l0.59,0.24l0.71,-0.18l0.84,0.87l0.35,1.55l1.03,2l-3.05,-0.21l-0.33,-0.95l-1.04,-1.5l-0.35,-2.34l0.09,-0.21l0.75,-0.03zm-5.56,0.16l0.21,0.76l-0.14,0.34l-0.55,-0.18l-0.65,0.39l-0.44,-0.13l-4.1,1.18l-12.99,11.45l-0.08,0.68l-0.74,0.6l-0.36,-0.26l-0.55,0.45l0.73,0.29l0.57,-0.45l0.11,0.13l-0.6,0.5l-0.98,-0.29l-5.62,4.88l0,0l-0.65,-0.87l0,0l5.51,-4.83l-0.09,-0.58l0.73,-0.39l-0.59,0.5l0.1,0.34l14.79,-13.05l0.67,-0.37l4.02,-1.1l0.1,-0.18l0.51,0.31l0.6,-0.16l0.14,-0.24l0.34,0.28zm-41.49,-61.5l4.19,0.79l0.22,0.13l0.19,1.19l-0.73,0.45l-0.49,0.69l-0.71,-0.32l0.3,0.55l-0.66,-0.26l-1.25,-0.05l-2.36,0.66l-1.22,1.24l-1.95,1.35l-2.63,1.21l-5.84,2.06l-2.83,1.4l-0.28,0.63l1.03,2.48l-0.3,0.37l-0.9,0.16l-0.27,0.34l-0.08,1.4l0.43,0.18l-0.3,0.98l-3.86,1.58l-2.15,2.32l-0.97,0.47l-2.14,-0.18l-1.34,0.24l-2.9,1.58l-0.79,0.05l-0.52,-0.42l-0.78,-1.48l0.02,-0.76l8.96,-5.67l1.36,-1.21l3.35,-3.93l2.41,-1.95l9.3,-6.34l2.15,-0.61l3.15,-1.32l1.19,0zm11.13,4.6l-0.51,0.74l-0.66,0.11l-0.84,1.08l-0.36,0.13l-0.71,-0.34l-0.89,0.16l0.02,-0.53l0.57,-0.05l0.33,-0.4l-0.41,-0.74l-0.68,-0.21l1.5,-1.48l0.16,-0.4l1.46,-1.06l0.92,-1.19l0.54,-0.34l0.95,-0.05l0.47,0.95l-0.11,0.79l-0.87,1.72l-0.88,1.11zm7.59,-27.23l-0.1,-0.21l0.36,-0.42l-0.26,0.63zm158.46,-4.5l-3.69,5.38l0.13,3.36l0.81,2.38l0.54,0.85l1.14,0.95l5.22,1.43l0.68,0.37l0.59,0.9l0.44,1.67l0.7,0.85l1.11,-0.13l1.85,-1.3l2.63,0.63l2.9,1.27l-0.84,7.32l0.06,0.24l1.49,0.34l0.41,0.63l-0.93,1.08l-1.38,0.5l-0.49,0.79l-0.08,0.92l-0.47,0.55l-0.19,1.11l-0.24,0.19l-1.23,-0.37l-1.17,0.69l-0.28,3.04l0.54,1.56l-0.08,0.92l-0.44,0l-0.38,0.4l-0.41,-0.53l-0.3,0.03l-0.41,0.84l-0.68,0.61l0.08,0.74l-0.27,0.55l-0.96,0.37l0.46,0.66l-0.1,0.4l-0.71,0.58l0.22,0.74l-0.06,1.29l-2.74,0.45l0.44,1.66l1.3,1.03l0.25,1.27l0.68,0.92l-0.25,1.18l-0.51,0.58l-0.24,0.98l-0.74,1.24l-1.03,0.84l-0.57,0.9l-0.95,0.11l-0.47,0.32l-0.22,1.4l-1.04,1l-0.25,0.84l-2.03,3.74l-0.44,2.77l-0.25,6.66l2.83,3.53l1.99,1.76l5.21,0.79l4.37,-0.18l2.31,1.24l1.16,1.13l0.93,1.47l3.8,1.52l0,0l-1.28,3.52l9.43,3.57l-0.68,8.93l10.35,16.08l-5.52,10.45l-9.37,6.7l-4.97,-5.1l-6.5,-0.63l-1,0.08l-1.16,0.73l-0.73,1.41l-2.01,1.6l-4.21,5.86l-6.65,4.26l-6.66,5.15l0,0l-1.95,1.65l-1.92,1.23l-0.85,0.08l-0.79,0.44l-0.6,0.63l-0.71,0.13l-2.06,-0.24l-1.79,0.73l0.52,2.61l-0.32,0.57l-2.39,1.46l-1.34,0.55l-0.71,-1.44l-1.8,0.24l-1.31,0.44l-0.49,0.42l-0.52,0.03l-0.68,-0.13l-0.81,-0.73l-0.6,-0.13l-0.74,-2.01l-0.92,-1.36l-0.49,-2.01l-2.14,0.47l-0.7,0.47l-0.19,0.39l0.17,0.99l-1.47,-0.6l-0.76,0.31l-1.65,0.21l-0.06,0.55l-0.65,0.31l0.24,0.44l-0.19,0.29l-0.03,1.31l-1.42,0.94l-0.81,1.23l-1.38,0.86l-0.6,0.94l-3.31,1.57l-0.76,-0.08l-1.46,-0.78l-0.74,0.03l-0.57,-0.34l-1.49,0.05l-0.85,-0.44l-0.62,0.57l-0.38,0l-0.35,-1.07l-1.93,-1.1l-0.24,-0.39l-3.78,2.64l0,0l-0.59,0.34l-0.98,-3.79l-5.73,-5.8l-3.17,-0.97l0.98,2.95l-1.08,0.44l-1.25,-1.23l-1.58,-0.31l0,0l0.11,-1.12l-0.4,0.44l-0.3,0l-0.27,-0.34l-0.49,0.47l-0.38,-0.39l0.06,-0.78l-0.38,-0.31l-2.07,-0.31l-1.92,0.1l0.32,-0.91l-0.21,-0.08l-0.35,1.05l-0.54,0.1l-0.03,0.55l-0.51,-0.42l-1.17,0.13l-0.09,-0.34l-0.63,-0.5l0.38,-0.31l-0.08,-1.78l-1.77,-1.31l-1.03,0.26l-3.2,2.2l-2.21,-0.31l-2.83,0.65l-0.38,0.71l-0.33,1.7l-0.35,0.37l-1.88,1.1l-2.26,0.47l-0.78,-0.1l-3.51,-1.36l-6.55,-3.03l-4.02,-1.2l-1.04,-0.08l-0.49,0.24l-0.11,0.6l-1.52,0.13l-2.26,0.76l-1.41,-0.5l-2.94,-1.7l-2.42,-2.61l-2.04,-1.49l-0.81,-0.94l0.25,-0.5l-0.11,-0.26l-0.74,-0.13l-1.09,-1.8l0.74,-0.65l0.47,-0.94l1.57,-1.81l2.25,-1.02l0.65,-0.65l1.63,-0.45l0.87,-1.23l0.16,-2.67l-0.32,-0.55l-0.52,-3.59l-0.87,-1.05l0.84,-0.73l0.54,0.16l0.41,-0.29l-0.08,-0.24l-0.58,0.05l0.06,-0.24l0.62,-0.05l0.24,0.31l0.22,-0.24l-0.02,-1.83l0.14,-0.18l0.32,0.34l-0.02,-0.29l-0.49,-0.73l-0.06,-0.65l-0.51,0.18l-0.25,-0.16l1.17,-0.29l0.16,-1.21l-0.85,-3.17l-0.33,-0.37l-0.3,-1.13l0.08,-0.55l-0.32,-0.18l-0.22,-1.39l0.06,-2.57l-0.41,-0.47l1.38,-2.33l-0.33,-0.52l0.38,-2.18l-0.4,0.13l-1,-0.52l0.19,-1.18l-0.44,-0.26l0.16,-0.29l0.57,0l0.11,-1.1l0.21,0.37l0.22,-0.05l-0.49,-1.44l0.28,-2.49l-0.47,1.76l-0.08,2.05l-0.6,0.42l-0.41,-0.45l-0.06,-0.89l-0.6,-1.26l-0.44,-0.71l-1.11,-1l-0.25,-1.55l0.22,-0.21l1,0l0.19,0.68l0.63,0.03l0,-0.68l0.67,-0.05l0.49,0.79l0.73,-0.1l-0.74,-1.76l-0.57,-0.66l-0.46,-1.02l-0.3,-1.18l0.22,-0.89l-0.22,-1.05l-1.44,-3.13l-0.27,-0.13l-0.59,0.13l-3.97,3.73l-1.11,0.53l-0.27,0.5l-0.47,-0.05l-0.44,-1.47l0.21,-0.24l0.33,0.21l0.92,-0.29l0.62,-0.42l4.42,-4.28l0.3,-0.42l0.44,-2.13l-0.33,-0.58l0.09,-0.32l2.56,-1.55l1.35,-1.76l0.9,-3.24l0.44,-5.9l0.49,-2.21l-0.05,-1.11l-0.85,-0.47l-0.21,-0.58l0.57,-0.58l0.19,-0.55l1.14,-0.63l0.19,-0.66l-0.24,-0.16l1.27,-3.87l0.74,-1.37l0.63,-1.9l1.61,-2.58l2.37,-2.11l3.12,-3.53l1.3,-0.53l1.87,-1.45l1.9,-1.08l0.36,-0.45l1.71,-0.95l1.55,-1.9l2.86,-2.64l0.96,-2.69l4.4,-4.44l4.46,-2.3l1.96,-0.42l5.95,-2.25l1.47,-0.29l1.42,-0.71l1.06,-0.05l1.71,-1.24l9.89,-5.79l3.66,-1.43l1.49,-0.87l0.67,-0.13l0.43,-0.45l2.31,-0.61l1.82,-1.27l3.42,-1.9l2.41,-0.79l0.9,-0.98l1.69,-0.48l0.71,-0.45l-1.71,-2.46l0.11,-0.24l0.44,0.61l0.35,-0.37l0.3,0.66l-0.22,0.34l0.9,1.27l1.28,0.21l0.98,-0.56l2.29,0.32l4.56,-1.35l1.88,-0.85l1.93,-0.26l0.24,-0.5l0.43,0.45l2.36,-0.42l4.21,-1.35l4.26,-0.34l4.1,-0.74l2.55,0.69l0.28,-0.69l0.32,0.69l0.67,-1.03l0.32,0.48l1.46,0.05l5.17,0.93l6.28,-2.97l1.06,-0.08l1.25,1.05zm-105.26,-9.44l-1.84,0.16l-0.17,0.32l0.27,0.32l4.22,-0.58l0.63,0.08l0.36,0.72l-0.47,1.83l-2.44,1.4l-0.74,0.21l-1.11,0.24l-0.3,-0.13l0.14,-0.21l-0.17,-0.13l-0.27,0.21l-0.36,-0.11l-1.85,1.43l-2.77,1.43l-1.47,-0.21l-0.84,-0.77l-0.11,0.66l0.41,0.72l-0.02,0.87l-1.54,-0.37l-1.27,-0.93l-0.87,-0.16l-0.11,0.34l0.19,0.21l1.95,1.38l2.45,0.93l-0.3,0.37l-0.47,-0.34l-0.43,0.13l-0.35,0.4l0.3,0.26l-0.44,0.29l-1.49,0.34l-6.54,-0.21l-2.09,0.13l-2.47,0.64l-1.3,0.58l-2.98,3.04l-1.85,1.24l-1.08,0.42l-0.79,0.05l-1.42,1.03l-1.87,-0.69l-0.38,0.74l-1.01,0.5l-0.79,0l-0.46,0.64l-0.14,0.63l-1.42,-0.16l-1.47,-0.56l-1.58,0.56l-1.38,-0.42l-2.47,2.17l-0.11,-0.26l-0.63,-0.29l-2.61,0.32l-0.66,0.9l0.08,1.27l-0.22,0.19l0.24,0.45l-0.55,0.08l-0.6,-0.48l-0.65,0l-0.25,0.4l-0.78,0.42l-0.9,1.22l-0.82,0.4l-0.7,0.87l-1.87,-0.45l-2.44,-1.56l-0.22,-0.37l-0.44,-2.2l0,-1.08l0.89,-1.11l2.52,-2.22l1.57,-2.33l0.62,-1.56l0.19,0l-0.17,0.79l0.27,-0.03l0.17,-1.01l0.68,-0.79l-0.08,-0.19l-0.61,0.07l0.46,-0.32l16.84,-3.15l3.04,-0.74l0.43,0.37l0.82,-0.11l15.4,-5.01l0.74,-0.74l3.09,-0.87l9.56,-3.84l3.12,-0.58l1.66,0.03l0.78,0.16l0.27,0.34l-0.03,0.58l-0.3,0.37l-3.03,0.42zm84.71,-3.36l0.27,2.12l-0.4,-0.69l-0.47,0.61l-1.19,0.58l-0.51,0.66l-0.87,-0.42l-0.33,-1.48l0.92,-1.35l1.23,0.11l1.23,-0.29l0.12,0.15zm-53.55,-0.06l8.47,-0.34l10.68,-1.22l2.26,0.4l11.24,-0.58l5.87,0.24l1.08,0.19l0.67,0.66l-0.32,0.64l-0.59,0.32l-1.6,0.34l-3.72,-0.13l-1.38,0.21l-3.35,-0.29l-2.22,1.03l-0.74,0.61l-2.52,0.64l-0.49,-0.05l-1.31,0.64l-4.38,0.95l-0.25,0.27l-4.38,1.22l-2.93,-0.16l-1.55,0.27l-0.16,-0.13l-0.09,0.93l-0.32,0.34l-0.35,-0.19l0.28,-0.21l0.05,-1.3l-3.13,-0.19l-2.94,-0.74l-1.6,0.11l-0.58,0.4l-0.51,1.22l-2.21,1.7l-2.39,0.72l-1.33,0.72l-1.99,0.11l-0.03,0.87l-0.46,0.37l-0.92,-0.27l-2.29,-1.54l-2.23,-1.03l-1.17,-1.33l-1.42,-2.28l-0.05,-1.59l0.68,-3.34l0.68,-1.14l0.76,-0.61l0.95,-0.34l1.52,-0.03l3.37,1.35l5.55,1.3l3.79,0.26zm67.63,-13.05l1.42,0.27l1.55,1.46l2.15,0.37l2.36,0.11l11.58,-1.59l6.44,-0.61l5.78,-0.24l0.29,0.45l-0.25,0.66l-2.52,1.3l-1.5,0.64l-1.66,0.29l-3.58,1.72l-1.93,0.35l-1.06,1.33l-3.96,1.86l-1.04,0.24l-3.13,0.08l-3.64,0.82l0.81,0.98l-0.06,0.27l-0.78,-0.48l-0.35,-0.64l-4.23,0l0.02,1.03l-0.33,0.03l-0.16,-1.01l-1.08,0.21l-0.3,0.69l-0.41,0.19l0.41,0.56l-1.35,-0.19l-0.43,0.34l0.43,0.61l-0.3,0.24l-0.06,0.45l0.51,0.72l-0.95,0.19l-1.42,-0.53l-0.84,0.08l-1.12,1.51l-0.52,0.08l-0.63,-0.27l-0.05,-0.21l0.4,-1.14l0.27,-2.2l0.52,-1.8l1.14,-2.23l1.42,-2.07l3.09,-2.76l0.79,-0.32l-0.24,-0.37l-5.95,-1.38l-1.17,2.97l-0.7,0.05l-0.33,-0.21l0.11,-0.96l1.09,-2.52l1.95,0l3.5,0.58z" fill="#b6bac1" id="NL-FR"/>
  <path d="m396.5,273.54l2.15,-0.8l2.46,2.18l2.1,2.62l1.11,1.89l1.65,3.5l0.5,1.61l1.2,-0.55l0.62,0.57l2.01,-1.5l0.93,-0.23l1.37,1.97l6.89,-7.13l1.71,-0.6l0.67,-0.54l0.44,-0.78l0.98,0.54l0.62,0.08l3.04,2.39l1.01,2.46l0.81,1.22l1.26,1.03l2.39,1.07l1.35,1.63l0.43,1.27l0.19,2.82l-0.16,2.44l0.61,0.8l1.25,0.93l2.35,3.47l0.9,2.59l0.09,0.96l-0.88,3.41l-0.7,1.4l-0.05,2.43l-0.34,0.72l-0.42,0.47l-2.89,1.11l-3.14,0.6l-0.63,0.87l-0.03,0.93l0.29,0.6l0.36,0.31l1.26,0.28l0.5,0.42l0.22,0.54l-0.87,0.72l-1.6,0.49l-0.4,0.68l0.21,2.61l-0.22,2.53l-0.26,1.83l-0.63,0.78l-0.02,0.51l1.57,0.21l0.54,1.19l0.09,2.81l1.06,0.34l1.65,0.02l0.33,0.6l0.45,1.44l0.82,1.16l0.13,2.5l1.51,1.86l0.45,1.96l0.88,0.78l-0.91,1.31l0,1.01l1.8,0.41l0.89,0.64l1.96,-0.18l0.08,0.52l-0.27,0.9l-1.11,0.72l-0.33,0.85l0.43,1.65l1.07,0.78l1.35,0.33l0.42,0.75l-0.04,0.82l0.34,0.31l0.29,-0.31l0.03,-0.46l-0.57,-0.67l-0.3,-0.85l0.62,0.26l0.12,-0.24l-0.33,-0.25l0.37,-0.67l0.72,0.77l0.15,-1.52l0.22,-0.9l0.22,-0.11l0.71,0.08l0.65,-0.28l1.03,0.31l1.74,-0.08l2.31,1.73l2.44,0.33l1.09,0.41l1.09,-0.02l0.43,0.33l2.09,-0.18l1.53,0.44l0.08,-0.75l1.04,0.36l0.37,-0.51l1.83,-0.49l0.13,0.41l0.48,0.1l0.11,0.44l0.49,0.44l3.27,0.03l1.27,-0.36l1.39,-0.06l0.09,-2.19l1.05,-0.69l0.63,-0.11l0.32,-0.69l2.99,-0.18l1.76,-0.75l0.9,0.44l2.04,-0.13l2.58,0.31l-0.05,1.29l1.11,1.57l0.65,1.86l3.19,3.34l1.3,2.63l0.94,0.36l1.04,0.05l0.32,0.31l0.07,1.42l0.87,1.96l0.53,0.69l1.53,0.75l0.52,0.51l0.54,0.18l3.02,-1.08l6.29,1.03l5.69,-1.16l0.11,-0.26l0.48,0.29l0.05,0.41l0.98,0.41l0.31,0.62l0.7,0.49l-0.51,1.05l0.11,0.42l1.33,1.23l1.33,-1l0.67,-0.23l0.27,-0.83l0.38,-0.31l0.84,0.26l0.77,1.08l0.78,-1.36l0.66,0.05l3.26,1.72l0.44,0.41l0.29,0.85l-0.03,0.62l-0.51,0.75l0.44,0.23l-0.03,1.41l0.21,0.72l-0.21,1.65l-1.68,2.7l2.33,1.08l3.45,0.64l2.71,1.26l7.13,-0.05l0,0l-0.68,5.32l-0.55,0.87l-0.14,-0.36l-0.4,-0.15l-0.92,0.87l0.14,0.67l0.75,0.72l0.03,0.72l-1.96,2.44l-6.73,1.13l0.35,0.67l-0.09,0.77l-1,2.08l-0.54,0.23l-0.06,1l0.24,0.28l-0.02,3l4.32,0l6.15,2.95l1.54,1.36l0.52,1.06l1.08,0.43l5.38,4.41l0.01,0.95l0.29,0.33l2.86,0.44l0.51,1.64l-0.16,1.79l0.52,2.05l-0.3,1.11l-0.46,0.81l-2.1,0.08l-0.78,0.74l-1.66,0.59l-0.44,3.28l0.03,2.18l-1.66,1.69l0.36,0.41l-2.51,3.07l-2.9,1.2l-0.03,0.9l-0.32,0.33l-2.34,0.82l-0.76,1.4l-1.49,0.72l-2.62,-2.07l-0.51,-0.56l-0.11,-1l-0.39,0.2l-0.32,-0.13l-0.56,-1.38l-0.79,-0.02l-0.76,-0.46l-0.77,0.23l-6.3,2.99l-1.01,1.05l-0.56,0.05l-0.79,-0.28l-7.32,2.45l-1.9,1.31l-1.17,1.12l-0.46,0.03l-0.7,-0.95l-1.2,0.49l-1.17,1.25l-1.57,1.02l-1.8,0.75l-1.49,1.04l-0.46,0.44l-0.03,0.74l-0.67,0.95l-3.21,0.86l-1.36,0.8l-0.85,-0.31l-1.6,-2.15l-0.7,-0.59l-0.85,0.7l-1.95,0.97l-0.5,-0.41l-0.29,-1.43l-1.71,-0.57l-0.41,-0.61l-2.61,-0.23l-0.81,-0.74l-0.35,0.15l0.13,0.67l-0.62,1.74l0.11,0.35l2.43,1.95l1.17,0.3l0.08,0.41l-1.21,1.69l-0.01,0.97l0.71,1.48l-0.08,0.18l-0.6,-0.16l0.52,1.77l-0.14,0.41l-0.51,0.17l-2.66,-1.76l-2.46,-0.07l-1,-0.46l0.22,-0.69l-0.6,-1.51l-1.14,-1.02l-4.72,-0.62l-2.92,0.28l-0.81,-3.65l-0.41,-0.26l0.19,-0.76l-1.7,-0.82l-0.79,-0.1l-0.55,-0.54l-1.2,-0.18l-0.7,0.28l-0.69,0.92l-1.27,0.39l-2.57,-0.05l-0.69,-0.23l-2.9,0.35l-0.76,-0.18l-1.96,-1.15l-2.21,-2.27l-0.11,-1.02l1.21,-0.23l-0.39,-0.46l0.05,-0.54l-3.39,-2.58l-0.21,0.48l-1.88,-1.18l-3.61,0.62l-1.07,0.82l-1.17,-0.92l-0.57,1.12l-0.51,-0.3l-0.32,0.3l0.07,0.67l-0.79,0.64l2.45,0.05l1.68,1.2l1.1,0.51l0.87,2.43l0.1,1.41l3.08,2.48l-0.06,1.53l0.35,3.52l-3.39,-1.22l-2.37,-0.51l-2.72,0.1l-2.04,-0.46l-1.3,-0.64l-2.49,-2.22l-1.8,-1.13l-0.87,1.61l-1.03,0.44l0.37,0.84l-0.15,0.56l-1.88,1.05l-1.33,1.23l-0.52,-0.54l-1.87,0.69l-0.81,1.61l-1.86,0.94l-2.3,0.26l-1.48,-0.56l-1.21,-0.1l-1.31,-0.82l-2.56,3.17l2.1,1.63l-0.51,0.66l-0.23,-0.18l-0.22,0.23l-0.37,-0.28l-0.19,0.16l-0.25,-0.23l-0.29,0.33l0.1,0.51l2.69,1.45l0.58,1.03l1.63,1.27l0.07,0.36l-0.57,0.36l0.36,0.38l-0.6,1.17l0.51,1.05l0.99,-0.03l0.72,0.49l0.47,-0.16l0.17,0.26l-1.04,1.05l-0.17,1.35l1.09,1.25l-0.08,0.74l-4.83,3.59l-0.54,0.16l-0.33,0.43l-0.01,1.27l0,0l-0.6,0l-0.16,0.49l-0.35,0.18l-1.82,0.12l-0.65,-0.68l-0.03,-0.46l-0.67,-0.59l-1.12,-0.56l-0.68,0l-0.52,-2.86l-2.99,-3.82l-1,-0.18l-3.28,0.43l-0.06,0.59l0.86,3.14l-0.89,0.94l0,0l-2.37,-0.43l-7.14,0.79l-3.83,0.99l-2.31,-0.02l-1.09,-0.23l-1.3,-0.64l-0.93,-0.79l-0.83,-1.33l0.18,-0.15l-0.43,-0.74l-1.2,-1.22l-0.71,-0.41l-3.04,-0.51l-0.76,-0.74l-1.13,-1.94l-1.2,-1.15l-2.96,-0.51l-1.69,-1.07l-1.09,-1.61l-0.94,-2.78l-1.04,-1.15l-0.81,-0.23l-1.98,0.05l-0.9,-0.36l-2.65,-1.73l-2.01,-0.49l-1.92,0.39l-2.8,0.2l-0.71,0.61l-1.17,1.94l-1.02,0.31l-3.29,-0.82l-2.43,-2.42l-0.98,-0.51l-0.59,0l-1.54,0.66l-0.57,1.1l-0.23,1.45l-0.68,0.97l-0.87,0.62l-1.98,0.48l-1.03,0.15l-2.2,-0.2l-1.58,-0.66l-1.46,-2.07l-0.5,-0.33l-1.3,0.02l-0.49,0.41l-0.79,1.43l-1.87,2.4l-2.75,4.67l-0.98,3.26l-0.15,3.35l-0.61,1.07l-0.8,0.58l-5,2.3l-3.18,2.19l-0.74,0.05l-2.12,-0.76l-1.76,-0.16l-1.12,0.39l-1.22,1.02l-1.01,0.33l-1.16,-0.44l-1.64,-1.47l-1.14,-0.49l-0.9,-0.1l-3.72,0.81l-3.14,-0.76l-2.05,0.08l-5.59,1.42l-0.06,-1.86l1.83,-1.53l0.7,-1.04l-0.74,-0.64l-0.29,-0.66l0.07,-1.02l0.47,-1.35l-0.11,-0.74l-3.61,-1.76l-1.6,-1.66l-0.79,-0.41l-0.96,-0.15l-0.92,0.4l-1.54,1.64l-1.12,0.15l-0.57,-0.23l-1.39,-1.53l-0.7,-1.48l-0.79,-0.54l0.02,-0.71l-0.37,-0.38l-4.24,-1.94l-1.22,-1.07l-0.85,-2.07l-0.93,-0.67l0,0l2.37,0.05l1.03,-4.98l-3.4,-0.46l-0.95,-1.58l0.34,-1.41l-0.58,-1.86l0.41,-0.43l1.8,1.58l4.01,-0.1l1.53,0.61l0.52,-0.59l1.79,-0.71l0.59,-0.56l-1.09,-0.67l-0.4,-0.87l0.25,-0.87l1.3,-0.64l1.92,-0.02l1.1,-0.62l1.05,-1.56l0.17,-1.25l0.45,-0.36l0.94,0.29l1.03,-0.26l1.7,0.41l0.36,-0.69l0.29,-2.18l2.19,-4.06l0.75,0.35l-0.1,-1.61l2.03,-2.94l-0.13,-0.64l0.46,-0.1l4.57,-8.71l0,0l2.17,1.41l2.03,0.44l0.85,-0.21l1.13,-1l1.39,-2.69l0.68,-0.84l1.2,-0.31l1.25,0.74l1.85,1.92l1.76,0.95l2.01,0.54l2.56,0.33l2.45,1.64l1.35,0.08l1.93,-0.98l1.57,-2.02l1.25,-0.87l1.34,-0.21l2.3,0.49l1.51,-0.1l4.97,-1.9l2.08,-1.76l1.04,-0.57l4.32,0.85l2.79,-0.31l0.91,0.23l2.16,1.31l1.04,0.95l5.11,1.89l1.14,1.82l1.14,0.9l1.23,0.53l4.1,1.05l2.68,1.8l1.59,-1.41l0.91,0.51l-0.07,-1.31l0.94,-0.23l0.01,-1.53l-0.69,-1.67l-0.03,-0.69l0.41,-0.64l0.17,-1.08l-1.6,-1.89l-0.35,-2.1l-0.68,-1.06l-0.99,-0.2l-1.27,-1.18l-0.65,-0.69l-0.14,-1.64l-0.27,-0.44l-0.49,-0.54l-0.38,0.41l-1.55,-1.69l0.87,-0.02l0.21,-4.49l-3.01,-1.13l0.21,-1.77l-1.21,-0.52l0.56,-1.51l0.39,-3.78l-0.17,-0.35l0.46,-1.9l-0.26,-2.01l-0.44,-0.02l-0.52,-0.62l-0.13,-1.85l-0.6,-0.41l0.3,-0.72l-0.27,-1.47l-1.07,0.16l0.08,0.49l-0.34,0.07l-0.41,-0.48l-1.41,0.36l0.11,0.66l0.48,0.16l0.01,0.36l0.4,0.33l-0.44,1.03l0.85,0.23l-0.08,0.67l-0.11,0.51l-1.28,-0.38l-0.51,0.9l1.05,0.43l-1.52,1.62l-1.32,-0.28l-1.4,0.1l-0.41,1.39l-1.86,0.02l-1.34,0.47l-2.72,-1.62l-0.1,-0.49l-0.63,-0.15l-0.3,-0.34l1.71,-2.18l2.28,-1.44l-0.21,-2.67l1.38,-1.34l0.08,-0.49l-1.11,-0.72l3.27,0.34l0,-0.36l-0.66,-0.36l0.03,-0.88l-0.77,-0.25l-0.73,-0.9l0.36,0.07l0.22,-1.44l1.73,-0.25l0.77,-1.49l-2.13,-1.06l-0.11,-0.38l0.3,-1.5l-1.63,-0.05l-1.28,-0.56l0.22,-1.73l-0.45,-0.15l0.1,-0.54l-1.03,-0.44l-0.08,-0.39l-6.04,-0.82l-2.52,-0.9l0.13,-0.93l-0.26,-1.54l-0.52,-0.52l0.68,-0.54l1.19,0.36l0.65,-0.54l0.41,-1.98l-0.05,-1.52l-6.47,-5.28l1.82,-7.83l0,0l2.34,-0.9l17.58,-5.03l0.59,-0.83l1.06,-2.89l5.24,-16.19l1.85,-2.87l0.39,-0.38l2.3,-0.5l0.54,0.08l0.72,0.91l1.08,-0.88l3.92,-1.86l0.57,0.18l0.76,0.8l4.32,-3.7l1.47,0.03l1.49,-0.44l1.33,-1.3l1.74,-0.69l1.14,-0.83l0.38,-0.65l0.81,-0.64l-0.27,-0.5l0.09,-0.36l0.34,-0.08l0.6,0.55l0.41,0.02l2.47,-1.99l0.19,-0.36l0.57,-0.16l3.37,-3.1l1.25,-0.75l3.08,-3.03l0.33,-1.01l1.75,-2.54l-0.91,-1.32l0.05,-0.29l2.22,-4.22l0.44,-0.21l1.11,0.37l0.3,-0.31l-0.02,-0.5l1,-2.74l0.41,-2.49l0.98,-1.43l1.09,-4.85z" fill="#b6bac1" id="NL-GE" transform="matrix(1 0 0 1 0 0)"/>
  <path d="m543.14,27.64l0.65,0.42l0.74,-0.08l2.03,-1.88l0.52,-0.19l2.75,1.11l0.33,0.93l-0.06,0.74l-0.33,0.56l-2.75,-0.56l-0.11,0.5l2.47,0.61l-0.17,0.72l-1.28,-0.24l-0.16,0.42l2.09,0.5l1.08,-0.13l1.19,0.32l0.11,-0.53l-1.28,-0.24l-0.25,-0.29l0.67,-2.54l3.1,0.98l3.5,3.34l-0.08,1.25l-1.25,3.52l-0.17,3.71l0.89,0.9l1.41,2.41l-0.43,0.69l0.57,0.24l0.21,0.48l-0.21,2.78l0.9,2.7l-0.05,1.27l0.89,3.94l0.33,0.56l1,0l2.88,2.56l0.67,0.87l0.79,0.11l0,0.45l-0.59,0.13l-0.35,1.27l1.65,0.53l0.43,0.61l0.54,-0.08l1.93,0.71l0.52,0.4l0.87,-0.03l0.84,0.26l2.52,1.22l0.84,0.19l1.09,1l1.12,0.66l2.59,1l2.07,-0.08l1.01,0.34l0.38,0.42l4.68,-0.11l0.66,-0.95l1.8,-0.34l0.59,-0.66l0.43,0l0.03,0.69l-0.43,0.13l-0.96,1.29l-0.93,0.71l-0.33,2.35l0.28,1.87l-1.27,3.51l0.08,1l0.57,0.29l0.08,0.74l0.46,0.53l1.14,0.55l0.4,0.47l0.63,0.08l0.29,0.55l2.04,0.08l0.74,-0.26l0.02,0.42l0.19,0.05l2.48,0.11l1.61,1.19l1.87,0.5l1.09,-0.42l1.47,1.11l1.87,0.34l0.43,0.37l2.86,0.71l0.25,0.24l0.3,-0.26l-0.22,-0.61l0.47,-1.16l0.54,3.72l-0.06,1.19l0.66,2l0.21,4.72l-0.24,0.79l-1,1.16l-0.25,0.66l2.91,2.13l0.05,0.61l-2.47,1.11l-1.31,0.05l-1.69,3.21l-0.05,0.66l-0.41,0.82l-0.06,2.53l-1,1.84l-0.55,0.37l0.63,4.39l2.85,2.1l-0.33,8.75l2.06,17.36l0.81,2.07l-1.28,1.6l-3.92,13.71l-0.24,1.55l-12.14,20.13l-2.63,3.37l-0.35,0.76l0.79,2.95l0,0l-3.18,0.16l0.14,-1.49l0.4,-1.23l-0.17,-0.1l-0.65,0.37l-0.43,-0.13l-0.62,-0.89l-0.41,-0.16l-2.34,-3.42l-0.59,0.05l-0.49,-1.86l-3.77,-0.39l4.49,-10.91l-3.34,-0.89l-1.34,-1.39l-0.19,0.05l-8.2,-12.39l-4.51,-6.21l-7.53,-7.58l-9.02,-10.29l-2.5,-2.34l-3.13,-3.6l-6.8,-6.99l-0.79,-1.13l-1.25,-0.84l-6.57,-0.34l-2.72,0.74l-6.54,2.97l-0.03,-1.81l-0.68,-0.34l-0.36,-1.24l-0.7,-0.55l-1.06,-2.92l-0.71,-0.26l-0.79,-1.05l-2.04,-1.79l-1.31,0l-0.49,-1.92l0,-1l-0.7,-1.18l-0.38,-0.05l-2.01,0.87l-1.14,-3.19l-2.34,-4.08l-0.6,-0.03l0.06,-0.53l-1.06,-2.06l-1.11,-0.05l-4.29,-1.87l-1.33,0.34l-1.42,-0.03l-2.67,0.87l-2.67,0.53l-0.09,0.92l-1.39,1.34l-1.12,0.29l-0.17,0.32l-2.18,1.48l-1.55,0.66l-0.27,0.53l-0.22,2.03l-0.71,0.74l-0.62,0.21l-1.08,1.76l-0.98,0.97l-0.27,1.79l-2.42,6.42l-0.36,3.37l-1.17,0.37l-2.01,5.28l-4.34,-1.6l0,0l-3.8,-1.52l-0.93,-1.47l-1.16,-1.13l-2.31,-1.24l-4.37,0.18l-5.21,-0.79l-1.99,-1.76l-2.83,-3.53l0.25,-6.66l0.44,-2.77l2.03,-3.74l0.25,-0.84l1.04,-1l0.22,-1.4l0.47,-0.32l0.95,-0.11l0.57,-0.9l1.03,-0.84l0.74,-1.24l0.24,-0.98l0.51,-0.58l0.22,-1.19l-0.68,-0.92l-0.25,-1.27l-1.3,-1.03l-0.44,-1.66l2.74,-0.45l0.06,-1.29l-0.22,-0.74l0.71,-0.58l0.1,-0.4l-0.46,-0.66l0.96,-0.37l0.27,-0.55l-0.08,-0.74l0.68,-0.61l0.41,-0.84l0.3,-0.03l0.41,0.53l0.38,-0.4l0.44,0l0.08,-0.92l-0.54,-1.56l0.28,-3.04l1.17,-0.69l1.23,0.37l0.24,-0.19l0.19,-1.11l0.47,-0.55l0.08,-0.92l0.49,-0.79l1.38,-0.5l0.93,-1.08l-0.41,-0.63l-1.49,-0.34l-0.06,-0.24l0.84,-7.32l-2.9,-1.27l-2.63,-0.63l-1.85,1.3l-1.11,0.13l-0.7,-0.85l-0.44,-1.67l-0.59,-0.9l-0.68,-0.37l-5.22,-1.43l-1.14,-0.95l-0.54,-0.85l-0.81,-2.38l-0.13,-3.36l3.69,-5.38l0,0l0.57,-0.32l0.82,-0.08l0.27,0.26l-0.3,0.34l0.08,0.4l0.63,0.03l6.01,-1.77l1.54,-0.11l1.33,0.4l5.19,2.91l0.79,0.53l1.33,1.99l0.24,0l2.29,-1.43l1.8,-1.62l4.81,-2.2l4.48,-1.72l6.65,-1.11l19.67,-2.25l4.75,-1.38l2.8,-1.11l2.41,-1.33l4.46,-1.78l7.48,-2.44l7.12,-0.88l1.72,0l4,1.3l1.82,1.14zm-60.67,-16.76l0.74,0.13l-0.08,0.66l-2.15,-0.29l-1.69,0.11l-0.22,-0.42l0.28,-0.45l0.89,-0.08l2.23,0.34zm28.25,-1.54l0.93,0l0.17,0.19l-0.08,0.29l-0.54,0.24l0.13,0.53l-0.17,0.19l-2.18,-0.8l-0.36,-0.56l0.14,-0.42l1.06,-0.13l0.9,0.47zm4.7,-4.52l0.08,0.32l-0.19,0.21l-1.44,-0.48l-0.79,0.19l-0.09,0.56l0.93,0.8l-0.05,0.58l-3.24,-1.54l-0.65,-0.13l-1.91,0.37l-0.38,-0.5l0.06,-0.42l0.93,-1.12l1.01,-0.29l3.42,0.37l2.31,1.08zm-19.48,-0.64l1.44,0.11l1.12,0.48l2.71,2.26l-0.03,0.37l-0.54,0.08l-2.04,-0.66l-0.63,0.11l-0.82,-1.01l-0.19,0.03l-0.33,0.45l0.3,1.06l-0.3,0.56l-1.58,0.03l-0.79,-0.31l-0.85,0.58l0.6,0.69l-0.11,0.58l-0.78,0.53l-1.39,-0.4l-0.71,-0.58l-0.35,-2.1l-1.87,-1.33l-0.65,-0.98l-0.1,-1.94l0.87,-2.52l0.6,0.08l0.68,2.31l5.74,1.52z" fill="#7f7f7f" id="NL-GR"/>
  <path d="m396.82,469.56l0.89,-0.94l-0.86,-3.14l0.06,-0.59l3.28,-0.43l1,0.18l2.99,3.82l0.52,2.86l0.68,0l1.12,0.56l0.67,0.59l0.03,0.46l0.65,0.68l1.82,-0.12l0.35,-0.18l0.16,-0.49l0.6,0l0,0l0.28,1.43l6.03,0.15l1.77,1.3l3.39,1.46l0.92,0.94l0.5,1.2l0.32,0.23l0.35,-0.31l0.76,0.59l0.08,0.4l-0.29,0.74l-1.25,-0.15l-0.36,0.15l-0.79,0.49l-0.19,0.73l0.28,1.69l0.62,0.73l0.11,0.79l0.05,0.89l-0.76,0.92l0.38,1.55l-0.11,1.05l0.38,0.94l1.26,0.81l2.17,0.61l3.72,1.48l0.22,0.46l0.95,-0.33l0.36,0.28l0,0.43l1.38,0l3.26,0.81l-0.03,1.56l-0.49,0.79l-0.35,0.17l-0.92,3.69l-0.28,0.05l-0.92,2.82l-0.6,-0.28l0.01,1.86l-0.44,2.16l2.45,1.73l2.3,1.98l0.99,1.9l1.71,1.88l2.57,2.26l0.98,1.2l1.5,3.75l1.25,2.47l1.6,1.06l1.79,1.6l2.26,3.96l-0.03,5.29l0.79,1.78l0.82,3.17l-0.74,5.37l0.05,0.98l-0.64,0.06l-0.19,0.3l-0.06,4.58l-1.19,6.96l3.14,-0.15l-0.02,0.45l-1.85,3.04l1.87,6.45l-5.62,5.18l-0.06,0.35l0.45,1.14l-3.83,0.83l-0.04,0.88l-0.87,0.99l-0.51,1.09l-0.06,1.16l-0.73,1.16l-0.08,0.96l-1.74,2.65l-2.2,2.8l-0.89,2.09l-0.11,0.84l-6.01,6.63l-2.1,1.29l2.24,4.78l-0.2,0.38l-1.78,-0.1l-0.82,0.4l-0.05,0.36l0.45,2.74l0.55,6.48l1.41,2.74l1.01,0.33l1.68,0.07l0.46,-0.45l0.6,-0.1l1.04,-0.68l1.51,-1.59l6.77,-3.27l1.01,0.58l1.62,1.46l-6.51,3.02l-0.19,0.3l5.45,3.4l0.12,0.4l-1.94,1.34l-0.08,1.05l-0.62,-0.02l-0.43,0.25l-1.29,-0.13l-2.57,0.96l-0.5,-0.25l-0.72,0.4l-0.46,0.68l-2.21,1.13l-2.41,0.43l-0.61,1.71l-0.37,0.2l0.1,0.78l-0.37,0.07l-0.45,-0.55l-0.18,0.96l-0.54,0.22l-0.5,0.63l-1.82,0.58l-0.65,0.45l-0.21,1.28l-1.96,2.27l-1.83,1.4l-1.76,0.53l-0.7,-0.43l-0.24,0.61l-0.71,0.1l-0.63,0.95l-1.87,1.44l-0.95,1.9l-1.47,0.53l0.26,0.81l-0.84,1.33l-0.87,0.75l0.08,0.65l-0.37,0.68l0.22,0.55l-0.28,0.51l0.03,1.68l-1.01,0.65l-0.76,0.17l0.3,1.41l-0.6,0.2l-0.45,-0.45l-1.28,-0.03l-1.2,0.43l-0.25,-1.33l-1.54,-2.16l-1.03,-3.36l-0.84,-0.98l-3.52,3.26l-4.18,0.58l0.28,1.56l1.89,2.31l-0.26,1.25l-0.54,0.05l-0.09,0.45l1.01,2.56l0.94,1.18l1.67,0.78l-0.04,1.48l1.47,0.65l-0.38,1.76l0.16,1.8l-1.63,1.81l0.74,1.45l1.14,0.07l2.55,-1.02l2.05,-1.63l3.12,-0.7l0.24,0.05l0.3,0.67l1.2,0.83l0.38,0.68l0.97,-0.23l0.36,-0.38l0.97,-0.37l6.86,-0.23l0.21,0.48l-1.79,4.64l-0.35,0.57l-1.22,0.98l1.82,1.13l-0.06,1.12l0.52,3.49l3.58,1.02l0.6,0.48l0.85,-0.3l0.69,0.65l-0.18,1.23l2.06,0.22l0.71,-0.5l0.46,0.05l1.39,0.45l0.86,0.95l0.41,-0.77l0.52,-0.25l-0.22,1l-0.97,0.65l-0.2,0.77l-0.65,0.63l-1.08,4.1l0.27,1.4l1.17,1.68l0.76,1.85l-0.41,0.58l-0.25,1.25l-0.41,0.2l-0.15,0.47l-0.68,0.78l-0.47,3.37l-0.75,-0.1l-1.83,-1.2l-0.32,-1.05l-4.41,2.23l-1.06,0.37l-0.35,-0.07l-0.11,3.47l0.54,0.82l0.44,0.2l-0.02,0.48l0.65,1.5l-0.55,0.47l-0.29,-0.02l0.27,0.77l-1.47,1.43l-0.85,1.37l-0.37,0.22l-0.76,0.2l-0.6,-0.55l-1.07,-0.5l-0.65,-0.72l-0.64,-0.1l-0.76,0.58l-0.8,1.24l-0.13,1.5l2.03,0.6l1.23,0.93l0.65,1.44l4.4,2.7l0.03,0.4l-1.06,2.07l-0.54,0.45l0.68,1.62l-0.74,-0.03l-2.37,0.55l-3.17,-0.1l-0.57,-0.22l-0.13,-0.95l-0.66,-0.75l-1.69,-0.4l-4.58,1.47l-1.29,1.1l-1.18,0.38l-0.09,-1l-0.35,-0.1l-1.36,0.15l-0.7,0.85l-1.93,-1.4l0.02,-1.42l-0.6,-1.67l-3.77,1.94l-1.66,1.72l-0.28,-0.07l-0.68,-2.42l-2.09,1.35l-1.55,0l-1.02,0.54l-1.1,0.23l-2.58,-3.64l-1.16,0.65l-0.22,-0.08l-1.34,-3.54l-1.59,0.27l-3.23,3.72l-0.85,1.57l-1.8,0l-1.33,-0.92l-0.84,1.05l-1.76,0.3l-0.9,0.84l-1.04,-0.17l-0.54,-0.45l-0.78,-0.02l0.13,-0.95l2.01,-2.75l0.76,-2.37l-0.07,-0.65l-1.37,-2.82l0.03,-0.52l1.04,-1.48l-0.03,-0.47l-0.9,-1.42l-2.12,-0.18l-0.25,-1l-0.9,0l-0.4,-0.42l-0.9,0.1l-1.28,-0.6l-0.21,-0.33l0.21,-0.35l-0.13,-0.47l-0.63,-0.73l-0.38,0.15l0.3,-1.32l-1.11,-1.4l0.27,-0.4l-0.51,-0.25l-0.03,-0.8l-0.36,-0.52l0.14,-0.8l0.28,-0.3l-0.28,-0.9l0.38,-0.65l-0.16,-1.18l0.14,-0.27l-0.3,-0.43l1.14,-0.97l-0.6,-0.75l0.41,-0.55l0.78,-0.13l2.8,-1.77l1.33,0l0.57,-1.68l1.42,-1.28l0.52,-0.77l0.35,-2.88l0.49,-0.73l1.2,-0.25l1.65,0.95l0.82,-0.42l0.49,-0.93l0,-1.85l0.46,-1.38l1.9,-2.4l0.89,-2.8l1.72,-0.86l-0.04,-1.05l-0.43,-0.9l-0.52,-0.48l-1.11,-0.2l-1.27,1.11l-1.2,0.3l-1.08,-0.58l-0.14,-1.28l2.09,-2.48l0.55,-1.4l1.71,-0.96l1.52,-2.55l0.93,-0.83l0.37,-0.68l0.16,-0.62l-0.15,-2.41l1.46,-2.71l0.1,-0.63l-0.64,-1.1l-2.04,-0.85l-0.19,-0.73l1.06,-1.73l1.06,-2.56l0.13,-2.47l0.24,-0.4l0.88,0l1.9,1.01l0.95,-0.2l0.4,-0.51l0.04,-0.67l-0.57,-2.16l0.38,-0.66l0.83,-0.65l0.11,-0.45l-0.4,-0.96l-1.01,-1.25l-0.06,-0.76l0.9,-0.88l1.23,-0.32l2.33,0.93l1.06,-0.93l0.19,-0.43l0.22,-1.43l-0.65,-0.96l-0.63,-0.27l-1.73,-0.03l-0.77,-0.45l-0.22,-0.98l0.25,-0.91l2.25,-2.76l0.57,-0.28l2.07,-0.25l0.73,-2.29l1.55,-1.08l-2.95,-2.29l0.21,-0.88l-0.67,-0.56l-0.09,-0.8l-0.73,-0.55l-0.57,-0.91l-1.29,1.21l-0.31,0.98l-0.38,0l-0.85,-0.83l-0.3,-0.03l-0.62,0.89l-0.74,0.42l-0.71,0.05l-1.35,1.14l-0.85,0.22l-0.38,-0.93l0.16,-0.55l0.47,-0.51l0,-0.75l-0.47,-0.1l-0.05,-0.58l-0.73,0.15l-0.17,-0.75l0.01,-0.43l1.03,-0.3l0.13,-0.26l-0.78,-0.17l0.4,-1.36l-1.47,-1.51l-1.98,-0.38l-1.38,-0.83l-0.63,0.5l-0.14,0.38l-0.59,-0.3l-0.66,0.4l-0.67,-0.25l-0.22,0.3l-1.33,0.03l-1.23,0.95l-1.25,-0.45l-0.26,-0.3l-0.6,-0.08l-0.14,0.3l-0.4,-0.02l-0.53,-0.55l-1.95,0.57l-0.25,-0.47l-0.57,-0.28l-1.25,-0.1l-0.87,0.22l-1,-1.61l-0.05,-0.42l0.38,-0.28l-0.36,-0.88l-1.85,-0.96l-12.05,-4.91l0,0l4.62,-1.41l-0.03,0.55l4.02,-2.02l0.73,-4.33l0.24,-6.18l7.04,-10.02l32.14,-10.03l9.29,-7.96l-9.59,-16.35l-1.86,-10.57l-1.21,-3.09l-2.33,-16.06l8.4,1.65l2.66,2.11l5.21,-0.54l4.86,-1.57l5.55,-2.28l1.93,1.54l1.96,2.44l0.92,-0.89l0.3,-0.05l0.46,0.38l0.46,-0.43l0.41,-0.05l0.06,-0.28l-0.73,-0.84l-0.47,-1.06l-0.02,-4.27l-1.66,-2.44l-0.47,-1.17l-0.22,-1.72l0.09,-2.37l-0.5,-1.73l-3.98,-3.89l-3.48,-2.13l-0.46,-0.51l-0.25,-1.27l1.2,-2.42l0.03,-1.17l-1.01,-0.46l-1.72,0l-0.57,-0.58l-0.07,-0.87l1.25,-1.93l-1.1,-4.38l-0.34,-3.08l-0.61,-0.56l-2.28,-0.97l-4.38,-0.59l-0.95,-0.23l-1.7,-0.84l-1.1,-1.4l-0.34,-2.65l-0.73,-3.01l-2.02,-1.91z" fill="#b6bac1" id="NL-LI"/>
  <path d="m260.17,453.38l0.93,0.66l0.85,2.07l1.22,1.07l4.24,1.94l0.36,0.38l-0.02,0.71l0.79,0.54l0.7,1.48l1.39,1.53l0.57,0.23l1.12,-0.15l1.54,-1.63l0.92,-0.41l0.97,0.15l0.79,0.41l1.6,1.66l3.61,1.76l0.11,0.74l-0.47,1.35l-0.06,1.02l0.29,0.66l0.74,0.64l-0.7,1.04l-1.84,1.53l0.06,1.86l5.59,-1.43l2.06,-0.08l3.13,0.76l3.72,-0.82l0.9,0.1l1.14,0.48l1.65,1.48l1.16,0.43l1.01,-0.33l1.22,-1.02l1.12,-0.38l1.76,0.15l2.12,0.76l0.74,-0.05l3.18,-2.19l5,-2.29l0.79,-0.59l0.62,-1.07l0.14,-3.34l0.98,-3.26l2.75,-4.67l1.87,-2.4l0.79,-1.43l0.49,-0.41l1.3,-0.03l0.51,0.33l1.46,2.07l1.58,0.66l2.2,0.2l1.03,-0.15l1.98,-0.49l0.87,-0.61l0.68,-0.97l0.24,-1.46l0.57,-1.1l1.54,-0.66l0.59,0l0.98,0.51l2.44,2.43l3.29,0.82l1.01,-0.31l1.17,-1.94l0.71,-0.61l2.8,-0.2l1.92,-0.38l2.01,0.48l2.66,1.74l0.9,0.36l1.98,-0.05l0.81,0.23l1.04,1.15l0.93,2.78l1.09,1.61l1.69,1.07l2.96,0.51l1.2,1.15l1.12,1.94l0.76,0.74l3.04,0.51l0.71,0.41l1.2,1.22l0.43,0.74l-0.17,0.15l0.82,1.33l0.93,0.79l1.3,0.64l1.09,0.23l2.31,0.03l3.83,-1l7.14,-0.79l2.37,0.43l0,0l2.03,1.91l0.73,3.01l0.33,2.65l1.11,1.4l1.69,0.84l0.95,0.23l4.38,0.59l2.28,0.97l0.62,0.56l0.33,3.08l1.11,4.38l-1.25,1.93l0.06,0.87l0.57,0.58l1.72,0l1.01,0.46l-0.03,1.17l-1.2,2.42l0.25,1.27l0.46,0.51l3.48,2.14l3.97,3.89l0.51,1.73l-0.09,2.36l0.22,1.73l0.48,1.17l1.66,2.44l0.02,4.27l0.47,1.07l0.73,0.84l-0.06,0.28l-0.41,0.05l-0.46,0.43l-0.46,-0.38l-0.3,0.05l-0.92,0.89l-1.96,-2.44l-1.93,-1.55l-5.55,2.29l-4.86,1.57l-5.21,0.53l-2.66,-2.11l-8.4,-1.65l2.33,16.06l1.22,3.09l1.85,10.57l9.59,16.35l-9.29,7.96l-32.14,10.03l-7.04,10.02l-0.24,6.18l-0.73,4.34l-4.02,2.02l0.03,-0.55l-4.62,1.41l0,0l-0.6,-0.53l-0.71,-4.92l0.22,-1.97l-0.21,-0.96l0.22,-0.28l-0.08,-0.68l0.22,-0.66l-0.24,-1.24l-1.85,-1.31l-2.77,-3l-1.17,-1.61l-0.58,-1.46l-4.05,-1.14l-0.95,-0.08l-0.08,0.33l-0.71,0.66l-0.43,1.29l-1.65,1.51l-3.85,0.73l-0.49,1.49l-0.89,0.1l-2.6,3.46l-5.47,-1.31l-5.84,-1.71l-0.22,0.2l0.03,0.73l-0.57,1.46l-0.81,0.68l-3.51,-0.05l-3.21,0.4l-4.78,-1.21l-3.78,1.29l-0.63,-0.28l-1.44,-1.39l2.36,-8.88l-0.22,-0.63l-6.19,-4.01l-4.13,1.36l-1.77,1.39l-4.46,-1.36l-0.41,-8.26l-1.16,-0.99l-0.68,-0.91l-0.52,-1.44l-0.63,-0.88l-6.54,-7.31l3.35,-6.78l1.8,-3.06l-4.15,-9.83l-4.45,-0.13l-0.78,-0.2l-1.12,-1.93l0.08,-1.67l-0.71,-0.3l-0.46,0.13l-1.79,1.47l-0.76,1.39l-0.98,0.86l-0.57,1.57l0.41,2.91l-0.84,1.24l0.1,1.17l-6.22,5.27l-0.98,0.99l-4.57,6l-0.06,-0.86l-0.47,0.03l-0.11,0.53l0.41,0.46l-1.01,0.46l-1.14,-0.33l1.6,-0.43l-0.36,-0.46l-0.6,0.18l-0.19,-0.48l-0.98,-0.71l-0.24,-1.09l-1.01,-0.96l-0.32,-0.78l-0.51,-0.03l-0.43,0.58l-0.35,-0.68l-0.93,-0.18l0.19,-0.61l-0.49,0.13l-0.11,0.35l-1.38,-0.35l-0.11,0.35l-1.14,0.96l0,0.61l-0.16,0.03l-1.11,-0.38l0.02,-0.71l-0.95,-0.08l-0.48,-0.33l-0.81,0.68l-1.17,-0.53l-7.47,1.49l-1.66,-0.71l-1.11,-0.81l-0.43,-1.09l0.03,-1.09l-0.28,-1.17l0.41,-0.78l0.52,-0.15l1.72,-0.15l0.41,0.81l0.81,0.33l1.61,0.18l1.9,0.71l0.85,0.58l1.12,0.23l1.22,0.63l0.02,0.48l1.28,-0.03l-0.03,-0.3l-0.47,-0.25l1,-0.86l-0.14,-0.13l-1.06,0.43l-1.38,-0.1l-0.13,-0.2l-0.7,-2.94l0.08,-1.09l-0.41,-1.95l0.02,-0.38l0.7,-0.53l0.82,-1.24l0.14,-0.76l0.28,0.48l0.55,0.18l0.87,-0.79l-1.57,-1.19l0.6,-2.2l0.25,-2.31l-0.59,-0.33l-2.56,-0.43l-0.29,-0.66l-0.17,-1.65l-0.4,-0.56l-2.86,-1.17l-1.22,0.13l-0.92,-0.2l-0.6,-0.91l-1.31,-0.15l-1.91,0.43l-0.38,0.63l-0.87,0.13l-0.59,0.79l0.02,0.66l-0.55,1.09l-2.55,1.34l-1.25,2.51l-0.87,0.61l-0.06,0.73l-1.93,0.46l-0.68,2.1l-0.95,1.75l-1.38,0.3l-2.72,1.57l0.38,4.43l-1.63,0.53l-1.17,-0.43l-1.9,0.99l-1.74,-0.89l-8.42,-1.57l-6.31,2.35l-0.85,-6.58l2.72,-5.95l-1.68,-2.46l-7.91,1.24l-1.3,-0.2l-0.89,0.15l-1.58,1.65l-3.42,0.61l-8.7,4.81l-0.57,0.1l-0.73,0.91l0.85,0.3l1.41,-0.03l0.7,1.11l-0.17,1.14l0.47,0.43l-0.28,0.56l-0.63,0l0.35,1.21l-0.57,0l-0.19,0.58l-1,1.11l1.35,3.31l6.2,8.17l-0.87,1.04l0.82,1.72l-1.44,-0.28l-4.37,2.2l-1.82,0.33l-0.89,-0.08l-2.61,-0.66l-2.94,-0.1l-0.87,-4.2l-0.35,-0.56l-9.19,0.28l0,0l-0.54,-1.59l-1,-0.13l-0.52,-1.14l0.32,-0.3l-0.06,-1.49l0.41,-0.48l-0.05,-1.32l-0.76,-3.64l0.62,-1.24l1.28,-1.16l-0.78,-1.27l-6,-14.21l-2.07,-4.36l-0.03,-1.95l1.03,-3.09l-0.11,-0.25l1.76,-4.72l0.19,-1.09l-0.1,-1.45l-0.17,-0.68l-1.23,-2.11l-5.22,-6.4l-0.63,-1.6l-0.11,-0.99l0.21,-2.29l1.14,-2.47l1.8,-1.78l4.35,-1.91l1.68,-3.15l0,0l4.29,0.51l3.8,-0.89l2.17,-0.97l3.12,-0.66l3.29,-1.53l1.39,-0.81l1.39,-1.45l1.08,-1.78l0.38,-1.65l1.98,-1.96l0.46,-1.02l0.89,-0.03l0.44,-1.15l1.04,-0.66l2.17,-2.04l11.88,3.97l3.48,0.36l11.87,-3.26l2.5,-2.01l9.97,-2.85l4.79,-3.39l3.5,-3.11l2.01,-2.22l0.71,-1.12l1.53,-4.62l2.45,-2.91l2.37,-1.28l2.2,-0.71l2.14,-0.13l4.04,0.61l1.74,-0.38l0.93,-0.38l2.45,-1.76l2.86,-2.96l3.73,-1.86l1.77,-0.41l2.61,0l4.6,1.02l5.38,0.83zm-11.83,94.07l0.02,0.48l0.79,-0.05l-0.28,0.2l0.16,0.28l0.6,-0.05l-0.66,1.01l-0.44,0.13l0.09,0.68l-0.33,0.15l-0.27,-0.89l0.21,-0.28l-0.08,-0.48l-0.51,0.43l-0.14,-0.28l0.25,-0.28l-0.11,-0.38l-0.87,0.53l0.59,0.71l-0.35,0.56l0.19,0.25l-0.11,0.73l-0.32,-0.05l-0.59,0.51l1.84,0.38l0.41,0.96l0.93,-0.23l0.41,0.46l0.55,-0.78l0,-0.66l-0.38,0.02l0.35,-0.53l0.29,0.15l0.35,-0.3l-0.33,-0.1l0.14,-0.35l-0.63,-0.13l0.02,0.33l-0.3,0.05l-0.13,-0.35l-0.19,0.18l-0.19,-0.81l0.97,0.1l-0.06,-0.68l-0.28,-0.15l-0.33,0.18l0.06,-0.46l0.28,-0.18l0.27,0.23l0.6,-0.71l0.35,-0.1l0.22,0.53l0.13,-0.35l0.68,-0.2l-0.09,-0.38l0.27,-0.23l-0.35,-0.58l-0.17,0.46l-0.57,0.28l-2.01,0.25l-0.95,-0.21zm2.66,1.52l0.06,0.28l1.06,-0.13l-0.71,-0.58l-0.08,0.3l-0.33,0.13zm-7.92,5.41l0.14,-0.2l-0.17,-0.23l-0.4,0.53l0.43,-0.1zm-4.18,2.58l0.02,-0.3l-0.3,0.05l0.03,0.28l0.25,-0.03zm11.03,1.98l-0.16,-1.29l-0.76,0.38l-0.84,0.08l0.59,0.58l-0.66,0.56l1.83,-0.31z" fill="#b6bac1" id="NL-NB"/>
  <path d="m276.88,318.98l-0.97,-0.7l-0.13,-0.34l1.01,0.52l0.25,0.36l-0.16,0.16zm-12.33,-1.58l-0.17,-0.13l0.22,-0.36l0.57,0.03l-0.62,0.46zm6.25,-3.75l-0.22,-0.05l-0.02,-0.31l0.28,0.03l-0.04,0.33zm-8.7,-1.83l-0.24,0.05l-0.02,-0.31l0.43,-0.13l-0.17,0.39zm7.69,-68.2l-0.17,-0.05l0.1,-0.52l0.07,0.57zm37.85,-15.12l8.62,3.83l7.09,7.5l0,0l-0.36,0.26l0,0l-7.01,-7.42l-8.23,-3.59l-2.07,0.21l-0.71,-0.21l0.27,-0.36l2.4,-0.22zm-94.39,-72.61l-0.6,0.31l-2.8,-0.24l-1.5,0.13l-3.34,0.81l-1.69,0.92l0.02,0.37l0.79,0.45l-0.55,0.55l-1.39,-0.1l-0.71,-0.55l-0.16,-0.79l0.17,-0.92l0.73,-0.76l1.57,-0.87l1.47,-1.31l1.09,-0.26l1.14,0l2.23,0.47l3.42,1.23l0.11,0.56zm55.41,8.52l-0.16,0.55l-0.41,-0.08l-1.57,1.26l-0.29,0.65l-0.09,1.83l1.47,-0.26l4.08,7.77l0.4,0.21l0.59,1.88l5.29,10.38l-1.52,18.28l1.22,0.08l0.67,1.17l0.87,3.63l2.34,2.14l0.54,0.83l1.55,1.54l1.17,0.39l1.77,0.03l1.41,-0.94l0.57,-0.5l1.95,-3.21l2.06,-0.05l2.41,0.31l0.68,0.39l1,0.18l0.55,0.65l1.15,0.55l0.89,0.03l0.4,-0.34l0.36,0.18l1.9,-0.57l0.43,0.5l-1.5,0.34l-0.05,0.21l2.15,-0.13l1.06,0.91l0.79,0.31l0.62,2.22l-0.46,0.6l0.35,0.73l-0.33,0.7l0.22,1.54l0.4,0.26l-0.11,1.09l2.04,1.56l0.96,0.08l0.1,0.26l-0.19,0.26l-1.01,-0.36l-0.35,0.34l0.13,1.04l-0.81,0.47l-0.36,0.57l-1.12,0.05l-0.14,0.16l0.3,0.26l-0.81,0.16l-0.05,0.26l0.79,0.65l-0.24,0.39l-0.25,-0.23l-0.44,0.03l-1.17,1.02l-2.1,0.34l-0.29,0.23l-0.43,-0.16l-1.11,0.26l-0.4,1.09l-0.11,2.08l-1.14,4.14l-0.79,1.17l-3.69,2.06l-1.01,0.99l-0.49,1.17l-1.33,0.03l-1.46,0.34l-1.14,0.65l-2.33,2.47l-2.33,0.23l-2.72,0.65l-0.52,-0.81l0.3,-1.09l-0.95,-1.43l-2.15,0.16l-1.79,-1.61l-0.84,-1.17l-2.2,0.65l-1.17,1.2l-0.41,-0.34l0.21,-0.34l-0.46,0.29l-0.9,-0.08l-0.13,0.62l0.24,0.34l-0.49,-0.16l0.14,-0.91l-0.73,-0.88l-0.93,0.03l-1.16,1.25l-1.12,0.18l-0.57,0.55l-1.06,0.52l-0.44,1.01l-0.08,1.61l0.57,3.2l-0.13,0.75l0.3,0.42l-0.14,0.55l0.29,0.68l-0.43,1.01l0.44,1.27l0.76,1.27l-0.08,0.52l0.81,2.31l-0.25,1.66l1.91,1.79l0.17,1.14l1.74,3.12l-0.11,1.53l0.73,0.78l0.95,2.02l0.14,1.17l0.68,1.19l0.7,0.03l-0.17,1.01l1.08,0.88l0.66,2.2l-1.58,2.72l-0.49,0.29l-0.27,0.52l-0.54,0.16l-0.57,-0.23l-0.47,0.62l-0.11,1.43l0.19,1.3l1.16,1.35l0.11,0.39l-0.21,0.73l-1.63,0.18l-1.09,-0.31l-1.91,0.96l-0.7,-0.41l0.55,1.32l0.59,0.23l-0.08,0.34l0.25,0.18l0.79,-1.06l0.66,-0.03l0.41,0.29l-0.81,1.66l-0.09,1.58l0.38,1.04l-0.27,1.06l0.27,0.34l0.96,0l0.68,0.31l1.03,-0.21l1.84,0.47l1.39,-0.08l0.25,-0.34l0.3,-3.26l0.35,-0.83l0.62,-0.67l0.36,-0.08l0.13,-0.34l-0.24,-1.35l0.24,-0.57l-1.46,-5.55l0.19,-0.26l0.3,0.03l1.52,5.24l1.23,1.14l0.13,0.52l1.87,0.05l1.08,-0.21l0.68,0.13l0.13,0.31l-1.58,0.6l-0.82,0.83l-1.35,0.18l-1.09,1.14l-1.17,0l-0.47,3.21l-1.08,1.66l-0.25,0.34l-0.44,0l-0.09,-0.34l0.22,-0.44l-0.21,-0.13l-0.46,0.67l-0.7,0.36l-0.4,1.04l-0.21,1.5l-0.57,0.72l-0.33,1.09l-1.54,-0.31l-0.54,0.21l-0.36,0.23l-0.85,1.55l-1.36,0.54l-0.84,0.93l-1.22,3.41l-0.73,0.26l-0.41,0.62l-0.81,0l-0.19,0.26l0.43,0.67l-0.27,0.7l0.08,0.41l-0.44,0.75l-0.36,0.13l-0.95,-0.59l-0.51,-0.8l-1.12,0.21l-1.71,0.98l-1.39,-1.55l-0.35,0.08l-0.9,-0.9l-0.71,0.83l0.47,1.24l1.14,0.16l1.41,1.16l-0.17,0.26l-0.66,0.08l0.14,0.52l-0.52,0.54l-0.02,-0.89l-0.46,-0.18l-0.47,0l-0.38,0.72l0.7,0.7l1.06,0.31l0.59,0.85l0.95,0.26l0.27,0.75l0.85,0.54l0.47,0.83l0.82,0.8l0.89,0.36l1.46,0.1l0.89,-0.88l1.3,-0.16l1.12,1.09l-0.14,0.93l-0.84,0.44l0,0.52l0.44,0.44l0.74,-0.08l-0.29,-0.59l0.13,-0.1l1.42,0.54l2.39,-0.49l1.63,0.28l1.28,-0.93l2.28,0.34l1.6,1.01l1.39,1.24l1.69,0.26l1.19,0.59l0.76,-0.21l0.51,0.41l0,0l1.16,1.45l1.08,0.62l11,-1.88l9.73,2.45l4.65,3.07l3.81,3.77l0,0l-4.73,3.38l-4.62,-0.83l-1.5,1.37l-0.93,-0.41l-2.53,5.21l-3.47,3.09l-0.1,5.88l-0.4,2.06l-1.25,2.94l-3.12,5.79l-2.79,0l-8.04,-0.59l-0.28,-1.13l1.79,-0.93l1.14,-1.03l0.84,-1.49l-1.99,-3.97l-1.9,-1.06l-0.49,0.95l-6.79,0.18l-2.03,-0.57l-3.21,-1.57l0.02,-1.47l-0.65,-0.72l3.31,-1.49l-2.18,-2.14l0.05,-0.9l-0.62,-1.96l-0.84,0.75l-0.52,-0.18l-0.25,-0.54l0.05,-1.11l-0.55,-0.57l-0.02,-0.95l-0.73,-1.52l1.12,0l0.51,-0.7l1.2,-0.49l1.22,-0.03l0.17,-1.14l1.28,-0.67l0.46,-0.1l0.22,0.21l0,0.57l0.52,0.26l-0.21,-1.21l-0.55,-0.77l-0.57,-0.05l-0.76,0.54l-0.35,-0.36l-1.23,1.47l-1.5,-1.26l-0.71,0.21l-0.44,1.19l-0.51,-0.44l-0.4,1.11l-0.59,0.15l-0.21,0.67l-0.7,0l-1.36,-3.2l-0.98,-0.41l-1.65,-0.05l-0.81,0.23l-1.27,0.9l-0.89,1.47l-0.47,0.26l-2.58,-0.41l-0.6,0.18l-1.27,-0.7l-1.2,0.52l0.21,2.24l-0.79,0.28l-0.52,0.46l-0.19,0.75l-0.82,0.21l-0.51,0.93l0.02,0.75l-0.68,0.57l-4.23,-0.21l-0.54,0.23l-2.01,0.1l-0.65,0.26l-1.22,1.01l-0.4,0.39l-0.76,1.6l-2.52,2.01l-2.98,1.37l-0.79,-0.15l-1.68,0.15l0,0l-1.65,-0.36l-1.55,0.67l-0.92,1.34l-1.38,1.08l-1.46,0.33l-1.93,1.24l-1.23,1.55l-0.92,-0.7l0.19,-0.46l-0.08,-0.93l-0.57,-1.26l0.22,-2.94l-3.09,-0.49l-1.5,0.62l-1.16,1.21l-0.21,-0.15l-0.4,0.26l-3.01,0.18l-5.13,2.99l-3.24,0.23l-2.25,-0.28l-2.36,-0.93l-1.68,0.57l-2.33,-0.54l-1.08,-0.88l-0.16,-1.31l0.09,-0.49l1.3,-1.62l1.25,-6.55l-0.29,-2.04l3.13,-3.17l1.47,-3.2l0.02,-0.65l1.04,-2.74l1.28,-1.86l-3.88,-1.65l-0.43,0.03l-2.14,0.59l-1,1.86l-10.74,-4.85l0,0l8.78,-22.26l1.79,-5.2l0.63,-2.72l0.22,-3.32l0.81,-1.11l-0.6,-1.71l1.25,-2.69l1.82,-5.08l1.93,-9.44l2.12,-13.14l1,-9.95l1.23,-8.12l0.06,-1.87l0.87,-5.88l1.49,-13.26l1.42,-6.7l0.92,-2.4l1.36,-2.64l2.67,-9.06l3.67,-14.66l0.82,-3.79l0.7,-14.14l0.54,-2.28l1.14,-2.2l0.87,-1.07l0.55,-0.24l2.29,-0.42l0.89,0.26l1.23,-0.6l2.56,0.13l-0.13,0.58l0.57,-0.31l0.43,0.26l-0.11,0.29l-0.36,-0.21l-0.32,0.58l0.17,0.73l0.4,0.45l0.33,0.03l0.11,0.63l0.17,0l1.16,-0.31l-0.13,-0.76l0.68,-0.52l-0.21,-0.45l-0.48,0.34l-0.28,-0.76l1.54,-0.31l0.46,1.05l-0.06,1l-1.54,3.3l-0.44,2.17l0.25,0.24l0.06,0.6l0.41,0l0.11,0.76l1.76,3.95l0.44,0.6l10.35,5.94l5.14,-1.36l1.79,-1.18l3.18,-1.33l-0.16,-0.47l0.57,-0.05l2.01,-2.54l0.43,-0.94l0.25,-1.39l1.5,-1.34l2.03,-0.5l1.04,0.03l2.36,-1.1l1.84,0.52l1.33,-0.26l1.14,-0.55l0.41,0.39l0.28,-0.1l0.63,0.65l1.79,-1.34l-0.21,-0.31l0.24,-0.31l18.09,-15.67l0,0l0.65,0.87l0,0l-17.69,15.47zm-27.61,-57.19l0.73,-0.24l0.55,0.5l1.22,1.68l1.82,3.53l-0.14,0.92l-0.44,0.05l-0.22,0.71l-0.32,-0.87l-0.41,8.21l0.32,2.42l-0.03,1.84l-0.62,1.89l-0.7,0.26l-1.9,1.6l-0.21,0.89l-1.04,0.63l-0.14,2.71l-1.25,1.71l-0.44,1.34l-0.55,0.52l-0.24,-0.39l-0.89,0.73l0.1,0.47l-0.7,1.02l-0.68,0.39l-1.23,0.5l-2.23,0.1l-0.41,0.34l-4.26,5.54l0.02,0.47l0.7,0.42l-0.46,0.66l-1.27,0l-0.52,-0.6l-0.43,0.31l-1.06,-0.66l-0.84,0l-2.34,-1.1l-0.41,0.34l0.43,0.21l0.17,0.79l1.84,0.73l0.24,0.55l1.04,0.66l0.16,0.34l-0.46,0.03l-1.06,-0.5l0.14,0.21l-1.85,0.79l0.02,0.29l0.46,0.08l-0.05,0.21l-1.58,0.52l-1.31,-0.21l-0.97,0.55l0.38,0.13l-0.44,0.5l-0.59,-0.08l-1.3,-1.21l-1.39,-2.81l-0.55,-2.86l0.25,-4.88l1.01,-5.17l0.81,-2.73l1.5,-3.68l3.02,-5.68l4.68,-7.49l1.69,-2.26l5.14,-8.4l2.15,-2.63l1.91,-1.69l1.46,-0.55l0.4,0l0.6,0.42l1,1.71l0.68,0.45l0.81,1.76l-0.08,1.47l0.17,0.95l0.39,0.64z" fill="#b6bac1" id="NL-NH"/>
  <path d="m437.15,186.44l1.21,1.57l0.35,1.02l0.79,1.04l5.61,6.53l1.13,0.63l3,4.13l1.03,1.04l-5.16,5.71l-0.19,1.26l-3.07,1.54l-3.64,0.88l-0.34,0.24l-0.72,1.25l3.2,8.24l1.79,3.91l0.81,2.81l0.98,1.3l0.54,0.34l0.2,-0.13l0.52,0.49l0.76,1.57l1.22,-0.5l0.38,0.44l2.03,0.24l0.85,-1.17l0.85,-0.03l1.26,-0.47l0.17,0.68l1.42,0.81l0.45,-0.16l0.17,0.36l1.2,0.6l0,0l0.87,-0.08l0,0l0.84,1.41l0.93,0.7l1.13,0.08l0.54,0.73l0.8,0.52l0.43,-0.08l0.7,-0.88l0.58,0.08l0.97,1.32l0.46,0.26l0.53,-0.07l0.57,-0.84l1.21,-0.08l1.96,-0.93l0.95,-0.05l0.54,0.93l-0.43,0.52l0.05,1.17l1.17,1.05l1.23,0.44l0.4,0.52l1.44,0.86l0.09,0.54l0.32,0.34l0.49,-0.05l0.7,0.52l-0.16,0.34l1,1.25l0.26,1.27l0.68,0.96l-0.15,1.07l0.47,0.8l0.08,0.84l0.58,0.78l0.4,0l0.14,0.72l0.22,0.06l1.43,-0.76l0.39,-0.67l1.51,0.05l0.5,-0.91l1.43,0.73l0.46,-0.37l0.11,-0.6l0.95,-0.7l0.44,-0.8l0.17,0.59l0.43,0.42l-0.05,1.01l0.53,0.68l0.95,0.6l0.93,0.15l1.74,-0.52l0.51,-0.54l0.61,-1.93l0.7,0.37l-0.03,0.65l0.66,0.26l0.18,0.41l1.2,0.13l0.33,-0.28l1.01,0.05l0.95,0.42l1,0l0.43,0.8l0.71,0.05l0.27,0.65l0.36,0.03l0.08,0.55l0.37,0l0.23,-0.45l-0.44,-4.36l-0.49,-1.46l-0.35,-3.02l0.11,-0.49l4.73,-3.9l1.3,-0.73l10.1,-2.27l9.63,4.58l5.4,1.88l-0.81,1.84l0.33,0.11l0.23,0.52l-1.02,1.12l0.32,0.54l-0.57,1.61l1.82,0.11l0,0l0.29,0.05l0.66,1.07l0.43,0.23l0.82,1.59l-0.43,3.04l-0.55,1.87l-0.1,2.05l7.5,6.62l-2.16,0.81l-0.91,0.05l-1.07,-0.44l-0.87,0.05l-1.54,-0.39l-0.8,2.68l-0.81,0.65l-0.06,0.39l-5.51,-1.12l3.94,8.23l-1.12,8.94l2.54,1.95l0.97,0.57l0.95,0.18l4.18,3.21l1.31,0.54l2.61,0.78l9.34,-0.34l1.8,0.42l0.96,-0.1l-0.01,2.43l1.63,-0.34l6.99,2.02l5.37,2l1.07,-0.39l2.23,-2.18l0.59,-0.9l1.74,-4.02l1.76,-1.24l0.79,1.01l0.09,0.67l1.3,3.11l1.3,5.41l1.77,1.61l2.28,5.17l-0.05,0.47l0.9,-0.05l1.62,0.64l0.65,-0.38l0.46,0.2l0.01,0.8l0.81,1.25l1.55,4.7l-0.11,5.51l-2.66,3.72l-0.28,1.76l-1.13,1.67l0.11,1.27l-0.38,1.26l-1.15,2.3l-0.51,0.47l-1.27,2.84l-0.11,0.77l0.05,1.16l0.35,1.11l-0.03,0.65l-0.21,0.15l0.08,1.16l0.9,0.96l1.63,3.73l3.17,3.54l-0.7,1.62l-3.43,2.22l-2.64,0.18l-0.48,0.38l-0.41,-0.41l-1.98,-0.54l-1.39,0.31l-0.4,-0.16l-1.09,0.55l-0.12,0.56l-0.76,0.65l0.11,1.67l-0.73,1.91l-0.86,1.13l-1.4,3.01l-1.62,2.48l-0.31,0.23l-2.73,0.54l-3.83,0.56l-0.31,0.49l-0.14,1.21l-3.55,3.3l-1.5,6.71l-2.66,2.57l-5.68,0.59l-9.34,0l0,0l-7.13,0.05l-2.71,-1.26l-3.45,-0.64l-2.33,-1.08l1.68,-2.7l0.21,-1.65l-0.21,-0.72l0.03,-1.41l-0.44,-0.23l0.51,-0.75l0.03,-0.62l-0.29,-0.85l-0.44,-0.41l-3.26,-1.72l-0.66,-0.05l-0.78,1.36l-0.77,-1.08l-0.84,-0.26l-0.38,0.31l-0.27,0.83l-0.67,0.23l-1.33,1l-1.33,-1.23l-0.11,-0.42l0.51,-1.05l-0.7,-0.49l-0.31,-0.62l-0.98,-0.41l-0.05,-0.41l-0.48,-0.29l-0.11,0.26l-5.69,1.16l-6.29,-1.03l-3.02,1.08l-0.54,-0.18l-0.52,-0.51l-1.53,-0.75l-0.53,-0.69l-0.87,-1.96l-0.07,-1.42l-0.32,-0.31l-1.04,-0.05l-0.94,-0.36l-1.3,-2.63l-3.19,-3.34l-0.65,-1.86l-1.11,-1.57l0.05,-1.29l-2.58,-0.31l-2.04,0.13l-0.9,-0.44l-1.76,0.75l-2.99,0.18l-0.32,0.69l-0.63,0.11l-1.05,0.69l-0.09,2.19l-1.39,0.06l-1.27,0.36l-3.27,-0.03l-0.49,-0.44l-0.11,-0.44l-0.48,-0.1l-0.13,-0.41l-1.83,0.49l-0.37,0.51l-1.04,-0.36l-0.08,0.75l-1.53,-0.44l-2.09,0.18l-0.43,-0.33l-1.09,0.02l-1.09,-0.41l-2.44,-0.33l-2.31,-1.73l-1.74,0.08l-1.03,-0.31l-0.65,0.28l-0.71,-0.08l-0.22,0.11l-0.22,0.9l-0.15,1.52l-0.72,-0.77l-0.37,0.67l0.33,0.25l-0.12,0.24l-0.62,-0.26l0.3,0.85l0.57,0.67l-0.03,0.46l-0.29,0.31l-0.34,-0.31l0.04,-0.82l-0.42,-0.75l-1.35,-0.33l-1.07,-0.78l-0.43,-1.65l0.33,-0.85l1.11,-0.72l0.27,-0.9l-0.08,-0.52l-1.96,0.18l-0.89,-0.64l-1.8,-0.41l0,-1.01l0.91,-1.31l-0.88,-0.78l-0.45,-1.96l-1.51,-1.86l-0.13,-2.5l-0.82,-1.16l-0.45,-1.44l-0.33,-0.6l-1.65,-0.02l-1.06,-0.34l-0.09,-2.81l-0.54,-1.19l-1.57,-0.21l0.02,-0.51l0.63,-0.78l0.26,-1.83l0.22,-2.53l-0.21,-2.61l0.4,-0.68l1.6,-0.49l0.87,-0.72l-0.22,-0.54l-0.5,-0.42l-1.26,-0.28l-0.36,-0.31l-0.29,-0.6l0.03,-0.93l0.63,-0.87l3.14,-0.6l2.89,-1.11l0.42,-0.47l0.34,-0.72l0.05,-2.43l0.7,-1.4l0.88,-3.41l-0.09,-0.96l-0.9,-2.59l-2.35,-3.47l-1.25,-0.93l-0.61,-0.8l0.16,-2.44l-0.19,-2.82l-0.43,-1.27l-1.35,-1.63l-2.39,-1.07l-1.26,-1.03l-0.81,-1.22l-1.01,-2.46l-3.04,-2.39l-0.62,-0.08l-0.98,-0.54l-0.44,0.78l-0.67,0.54l-1.71,0.6l-6.89,7.13l-1.37,-1.97l-0.93,0.23l-2.01,1.5l-0.62,-0.57l-1.2,0.55l-0.5,-1.61l-1.65,-3.5l-1.11,-1.89l-2.1,-2.62l-2.46,-2.18l-2.15,0.8l0,0l-1.25,-7.13l-0.49,-1.48l-6.74,-7.2l-1.45,-0.26l-3.74,0.06l0.06,-6.86l9.39,0.02l0.43,-0.7l0.82,-0.34l9.32,-2.05l1.26,0.49l0.8,0.86l2.34,-0.29l3.64,-2.05l0.23,-0.57l5.24,-1.15l3.56,-2.36l0.83,-0.96l-0.04,-0.4l-0.39,-0.65l-1.89,-1.87l-2.57,-0.7l-2.52,-2.21l-1.54,-0.52l-1.09,-0.08l-2.1,-0.83l-0.02,0.36l-0.68,-0.08l-0.38,-0.44l-0.06,-0.89l1.79,-2.03l1.47,-1.01l0.9,-1.07l0.51,-0.08l0.41,-0.68l-0.03,-0.91l-0.68,-1.51l-0.53,-0.41l-0.31,0.02l0,-0.91l-0.54,-0.94l-1.11,-0.57l-1.6,-5.53l-1.12,-2.89l-0.57,-0.89l-3.05,-2.89l-0.57,-0.03l-0.95,-0.6l-1.62,-1.38l-0.93,-1.31l-3.1,-2.14l-1.39,-0.67l-1.87,-0.34l-0.33,-0.24l-2.9,0l-0.03,-0.49l-2.14,-1.88l-1.41,-2.51l0,0l3.79,-2.64l0.23,0.4l1.93,1.09l0.35,1.07l0.38,0l0.62,-0.57l0.85,0.44l1.49,-0.05l0.57,0.34l0.74,-0.03l1.46,0.79l0.76,0.07l3.31,-1.56l0.6,-0.94l1.37,-0.86l0.81,-1.23l1.43,-0.94l0.03,-1.31l0.19,-0.29l-0.24,-0.44l0.65,-0.31l0.06,-0.55l1.65,-0.21l0.76,-0.31l1.47,0.6l-0.18,-1l0.2,-0.39l0.69,-0.47l2.14,-0.47l0.49,2.01l0.92,1.36l0.74,2.01l0.6,0.13l0.81,0.74l0.68,0.13l0.52,-0.03l0.49,-0.42l1.31,-0.44l1.81,-0.24l0.71,1.44l1.34,-0.55l2.39,-1.46l0.32,-0.58l-0.52,-2.61l1.79,-0.73l2.05,0.23l0.72,-0.13l0.6,-0.62l0.79,-0.45l0.85,-0.08l1.92,-1.22l1.94,-1.65z" fill="#b6bac1" id="NL-OV"/>
  <path d="m227.46,348.19l1.68,-0.16l0.79,0.16l2.97,-1.37l2.52,-2.01l0.76,-1.6l0.39,-0.39l1.22,-1l0.65,-0.26l2.01,-0.1l0.54,-0.23l4.22,0.2l0.68,-0.57l-0.01,-0.74l0.5,-0.93l0.83,-0.21l0.19,-0.75l0.52,-0.46l0.79,-0.28l-0.21,-2.25l1.21,-0.51l1.26,0.69l0.6,-0.18l2.58,0.41l0.48,-0.25l0.88,-1.47l1.27,-0.91l0.81,-0.23l1.64,0.05l0.98,0.42l1.36,3.19l0.7,0l0.21,-0.67l0.58,-0.15l0.4,-1.11l0.5,0.44l0.45,-1.19l0.71,-0.2l1.5,1.26l1.24,-1.47l0.34,0.36l0.76,-0.54l0.57,0.05l0.56,0.77l0.2,1.22l-0.52,-0.26l0,-0.57l-0.22,-0.21l-0.46,0.11l-1.28,0.67l-0.18,1.13l-1.21,0.03l-1.21,0.49l-0.5,0.7l-1.13,0l0.73,1.52l0.02,0.95l0.55,0.57l-0.05,1.11l0.26,0.54l0.52,0.18l0.84,-0.75l0.61,1.96l-0.04,0.9l2.18,2.14l-3.31,1.5l0.65,0.72l-0.01,1.47l3.21,1.57l2.02,0.57l6.79,-0.18l0.49,-0.96l1.9,1.06l2,3.97l-0.84,1.49l-1.14,1.03l-1.79,0.93l0.28,1.13l8.04,0.59l2.79,0l3.12,-5.79l1.25,-2.94l0.39,-2.06l0.1,-5.88l3.46,-3.09l2.53,-5.21l0.94,0.41l1.5,-1.36l4.62,0.82l4.73,-3.38l0,0l8.04,7.95l3.07,2.63l0,0l-1.82,7.83l6.47,5.28l0.05,1.52l-0.41,1.98l-0.65,0.54l-1.19,-0.36l-0.68,0.54l0.52,0.52l0.26,1.54l-0.13,0.93l2.52,0.9l6.04,0.82l0.08,0.39l1.03,0.44l-0.1,0.54l0.45,0.15l-0.22,1.73l1.28,0.56l1.63,0.05l-0.3,1.5l0.11,0.38l2.13,1.06l-0.77,1.49l-1.73,0.25l-0.22,1.44l-0.36,-0.07l0.73,0.9l0.77,0.25l-0.03,0.88l0.66,0.36l0,0.36l-3.27,-0.34l1.11,0.72l-0.08,0.49l-1.38,1.34l0.21,2.67l-2.28,1.44l-1.71,2.18l0.3,0.34l0.63,0.15l0.1,0.49l2.72,1.62l1.34,-0.47l1.86,-0.02l0.41,-1.39l1.4,-0.1l1.32,0.28l1.52,-1.62l-1.05,-0.43l0.51,-0.9l1.28,0.38l0.11,-0.51l0.08,-0.67l-0.85,-0.23l0.44,-1.03l-0.4,-0.33l-0.01,-0.36l-0.48,-0.16l-0.11,-0.66l1.41,-0.36l0.41,0.48l0.34,-0.07l-0.08,-0.49l1.07,-0.16l0.27,1.47l-0.3,0.72l0.6,0.41l0.13,1.85l0.52,0.62l0.44,0.02l0.26,2.01l-0.46,1.9l0.17,0.35l-0.39,3.78l-0.56,1.51l1.21,0.52l-0.21,1.77l3.01,1.13l-0.21,4.49l-0.87,0.02l1.55,1.69l0.38,-0.41l0.49,0.54l0.27,0.44l0.14,1.64l0.65,0.69l1.27,1.18l0.99,0.2l0.68,1.06l0.35,2.1l1.6,1.89l-0.17,1.08l-0.41,0.64l0.03,0.69l0.69,1.67l-0.01,1.53l-0.94,0.23l0.07,1.31l-0.91,-0.51l-1.59,1.41l-2.68,-1.8l-4.1,-1.05l-1.23,-0.53l-1.14,-0.9l-1.14,-1.82l-5.11,-1.89l-1.04,-0.95l-2.16,-1.31l-0.91,-0.23l-2.79,0.31l-4.32,-0.85l-1.04,0.57l-2.08,1.76l-4.97,1.9l-1.51,0.1l-2.3,-0.49l-1.34,0.21l-1.25,0.87l-1.57,2.02l-1.93,0.98l-1.35,-0.08l-2.45,-1.64l-2.56,-0.33l-2.01,-0.54l-1.76,-0.95l-1.85,-1.92l-1.25,-0.74l-1.2,0.31l-0.68,0.84l-1.39,2.69l-1.13,1l-0.85,0.21l-2.03,-0.44l-2.17,-1.41l0,0l-1.02,-0.67l-2.82,-0.48l-1.14,-0.67l-0.79,-1.66l-0.35,-2.64l-0.41,-0.77l-2.06,-1.21l-1.58,-0.59l-1.2,-0.38l-1.81,-0.1l-1.67,0.48l-3.03,1.49l-0.55,0.82l-2.8,2.2l-1.03,1.13l-0.41,1.23l-0.82,1.13l-1.6,0.18l-2.44,-1.92l-1.2,-0.23l-0.63,0.12l-1.44,0.85l-2.06,2.92l-0.9,0.62l-1.21,-0.08l-2.39,-0.95l-0.88,0l-1.08,1.13l-1.06,2.53l-1.2,1.51l-3.09,0.8l-1.47,0.13l-1.64,0.56l-1.29,-5.05l-1.1,-0.89l-0.4,-1.39l-1.19,-0.74l-1.86,-2.13l-1.65,-2.33l0.62,-0.28l-1.01,-1.38l-1.21,-0.41l-1.4,-1.87l6.34,-1.57l0.14,-0.33l-1.29,-2.49l-1.02,0.54l-2.62,-0.1l-0.97,0.69l-1.77,0.18l-0.44,-1.44l0,-0.92l1.39,-1l-0.27,-1.93l1.14,-0.84l2.04,-3.18l2.61,-1.98l3.31,-1.21l0.8,-1.64l-4.92,0.05l-1.56,0.39l0.06,-1.37l-0.89,-1.07l-0.28,-1.26l-0.27,-3.91l0.09,-2.33l-5.41,-3.89l0.26,-1.05l1.94,-0.87l0.32,-2.06l0.9,-1.31l1.27,-0.54l1.48,-0.29l0.92,-0.48l0.37,1.51l0.88,0.7l3.09,0.41l1.14,-0.18l0.08,-0.28l0.71,-0.34l-0.59,-4.04l3.25,-1.26l0.04,-0.36l-5.3,-3.68l-2.39,-0.85l-4.52,-4.99l-0.32,-0.8l-1.07,0.05l-0.26,-1.36l0.03,-2.53l-1.12,-1.85l-0.06,-1.7z" fill="#b6bac1" id="NL-UT"/>
  <path d="m123.12,569.76l0.43,0.03l0.03,-0.38l0.16,0.1l0.73,1.57l-0.28,0.2l-1.55,0.15l-1.95,-0.86l-0.49,-0.56l1.19,-0.78l1.42,0.2l0.31,0.33zm-93.22,-9.96l2.94,0.94l-0.21,0.61l0.19,0.13l0.4,-0.18l0.16,0.2l0.92,0.03l1.57,1.85l0.95,0.33l1.65,0.05l0.9,0.25l0.25,0.48l0.95,0.25l0.21,0.48l3.94,1.14l7.17,1.14l0.78,0.91l0.11,0.46l0.36,0.15l0.11,0.46l2.55,1.67l1.22,1.72l1.52,0.15l1.23,-0.4l3.88,0.78l0.16,0.5l-0.63,0.51l-0.09,0.93l1.66,0.88l0.6,0.03l0.06,-0.28l-0.3,-2.73l0.13,-0.35l3.05,0.08l0.57,0.71l1.16,0.63l1.52,0.23l-0.46,0.5l-0.03,0.46l1.16,2.25l0.33,-0.18l-0.44,-1.44l0.54,-0.23l-0.38,-1.24l0.47,0.05l-0.14,0.35l0.27,0.83l0.47,-0.25l0.35,-0.93l0.35,0.03l-0.24,0.35l0.3,0.35l1.22,0.18l1.22,0.76l4.04,-0.1l1.06,-1.34l0.35,-0.96l2.36,-0.71l0.68,-0.88l2.83,-1.95l1.71,-0.73l2.6,-0.56l0.09,-0.23l1.19,-0.38l0.52,0.08l0.33,-0.3l0.78,0.61l0.21,-1.04l-0.17,-0.4l0.54,-1.06l0.11,-1.54l0.87,-0.94l-0.37,-0.86l-0.16,-2.23l1.65,-2.33l2.58,0.23l0.38,0.53l3.94,0.61l-0.32,0.53l0.38,0.38l0.41,-0.18l0.62,1.04l0.55,0.2l0.65,2.33l-0.27,0.18l0.19,0.63l0.65,0l1.2,2.58l0.93,1.14l4.49,0.28l2.07,0.35l3.7,3.23l2.77,3.29l1.63,0.93l-1.74,-2.27l-0.84,-1.84l1.71,-0.66l1,-0.05l0.49,0.35l0.49,1.01l0.9,0l0.7,0.5l0.85,1.21l-0.08,0.48l0.3,0.05l0.41,-0.63l-0.7,-0.61l-0.33,-0.76l2.48,0.13l-0.38,-0.4l-2.18,-0.4l-0.38,-0.38l3.58,-0.18l1.22,0.28l-0.66,-0.66l-3.05,-0.02l-1.38,-0.43l-1.31,-2.25l0.08,-1.16l1.04,-0.33l0.65,0.23l0.98,-0.83l0.59,-0.13l0.43,3.08l2.28,1.34l1.12,0.2l-1.8,-0.94l-0.97,-0.86l-0.3,-0.71l0.03,-1.29l0.3,-0.28l0.43,0.33l0.17,1.06l0.17,-2.17l0.63,-0.71l1.33,0l1.08,0.46l0.46,-0.03l1.12,0.86l0.65,2.15l0.97,1.62l1.69,1.87l-2.26,3.44l-8.09,10.45l-10.74,8.12l-2.91,1.89l-0.63,0.63l-2.04,1.06l-0.54,0.96l-2.91,0.68l-0.44,-0.2l-0.51,-0.86l-0.65,0.53l-1.19,0.48l-0.57,-0.96l-1.04,0.03l-1.99,1.11l-0.74,0.83l-0.76,0.3l-0.78,0.73l-0.3,-0.38l-1.41,2.34l-2.26,0.4l-0.06,0.73l-0.65,1.21l-1.73,0.13l-0.79,0.25l-0.02,0.33l-1.06,0.33l-0.47,-1.11l-0.76,-0.86l-0.48,0.81l-0.92,0.05l-0.49,0.83l0.21,1.11l-0.47,0.08l-0.59,0.81l-1.72,0.78l-0.89,-0.33l-0.32,0.4l-0.84,0.43l-0.32,-0.78l-0.92,-1.06l1.84,-1.41l0.46,-0.91l-0.93,-1.56l-1.38,0.71l-3.21,2.29l-1.11,-0.68l-0.4,0.3l-0.35,-0.15l-0.74,0.4l-0.92,-0.38l-1.11,0.86l-1.08,0.25l-2.03,-0.91l-0.81,-0.13l-0.17,0.2l0.22,0.83l-0.14,0.13l-0.79,-0.66l-0.32,-0.68l-0.9,-0.23l-0.24,-0.48l-0.17,-2.85l0.16,-4.26l0.97,-2.67l-0.22,-0.35l-1.19,-0.3l-1.46,-1.31l-0.71,-0.3l-0.27,0.58l-0.68,0.35l-0.79,-0.53l-0.87,-1.69l-0.62,-0.38l-0.62,0.33l-3.92,-0.93l-1.01,0.4l-3.5,-1.01l-0.38,-0.23l-0.55,-1.08l-1.68,-0.03l-0.41,-0.68l-2.93,-1.72l-2.01,0l-0.73,0.5l-2.26,-1.34l-0.73,0.08l-0.46,-0.78l-4.38,-2.32l-1.57,1.87l0.76,1.36l-0.6,0.43l0.27,0.68l-0.28,0.48l-0.49,-0.48l-0.52,0.13l-0.71,-0.61l-0.05,-0.35l-1.36,-0.68l-0.52,0.2l-0.21,0.66l-0.49,0.35l-1.79,-0.23l-0.81,1.72l-0.87,0.13l-1.19,-1.19l-1.55,0.3l1.92,10.37l-7.18,0.86l-4.75,0.33l-0.95,-0.1l-2.26,-0.86l-0.63,0.05l-0.44,-2.34l-0.27,-0.35l-1.14,-1.08l-1.14,0.73l-0.65,-1.34l-1.68,-1.06l-0.92,-1.82l-1.39,-0.35l-0.57,-0.71l0.95,-0.78l-0.03,-1.44l-0.28,-0.45l-1.39,-0.96l-0.62,-1.57l1.42,-0.76l-2.67,-3.16l-0.04,-0.45l3.99,-4.52l-0.29,-2.27l-1.36,-1.77l-0.13,-0.78l0.22,-1.87l-1.31,-2.53l0.79,-1.14l1.36,-0.96l0.02,0.4l0.28,-0.03l0.09,-0.51l2.86,-1.04l3.67,-1.85l1.31,-0.2l0.19,0.78l0.71,0.23l0.14,-0.51l1.96,-0.61l0.76,-0.61l2.33,-0.33l2.31,-0.76l0.92,-0.43l0.13,-0.43l0.87,-0.05l1.58,-1.39l1.77,-0.18l0.71,0.3l2.64,0.25l1,0.35l0.12,0.7zm25.09,-28.4l0.17,0.2l-0.59,-0.15l-0.3,-0.36l0.46,0l0.26,0.31zm-1.86,-2.48l-0.3,-0.1l0.35,-0.1l-0.05,0.2zm-0.34,-1.09l-0.13,0.15l-0.13,-0.25l0.17,-0.48l0.09,0.58zm4.39,-0.03l-0.08,0.23l-0.17,-0.1l-0.13,-0.38l0.51,-0.96l-0.13,1.21zm0.63,-1.14l0,0.36l-0.22,-0.79l0.36,-0.41l0.16,0.28l-0.3,0.56zm-5.11,-0.68l-0.22,0l0.41,-0.25l0.35,-0.76l0.14,0.66l-0.68,0.35zm11.36,-2.59l0.76,0.08l0.28,-0.2l0.78,0.53l-1.22,0.28l-2.55,-0.05l0.02,-0.63l0.25,-0.33l0.55,-0.05l1.13,0.37zm17.83,-0.61l-0.36,-0.03l0,-0.18l0.49,-0.51l0.25,0.36l-0.38,0.36zm-15.49,0.02l-1.01,-0.56l0.08,-0.13l0.43,-0.1l0.73,0.3l-0.23,0.49zm-1.37,-0.71l0.17,0.84l-1.73,-0.18l-0.43,-0.43l1.44,-0.43l0.41,0l0.14,0.2zm-13.37,-0.23l0.68,0.3l0.62,0.61l0.32,0.71l0.06,0.96l-0.44,-0.13l-0.41,1.27l-0.3,-0.23l-0.29,-1.42l-0.66,-1.47l0.03,-0.76l0.39,0.16zm-1.52,-0.76l-0.13,0.15l-0.38,-0.91l0.55,0.08l-0.04,0.68zm-0.81,-1.72l0.32,0.05l0.1,0.48l-0.41,-0.25l-0.59,0.08l0.06,-0.3l0.52,-0.06zm78.58,-11.59l-0.55,-0.15l0.35,-0.13l0.2,0.28zm-52.08,-38.36l1.31,1.28l4.53,1.43l1.61,-0.31l3.21,-4.08l2.44,-1.45l3.04,-0.79l2.93,0.41l2.25,2.04l6.04,1.35l0.44,0.66l0.63,2.73l2.61,3.7l0.24,4.94l0.51,2.01l1.39,2.44l1.14,0.46l6.96,0.56l2.99,1.07l2.98,-0.08l2.33,0.25l7.25,5.5l5.16,3.56l2.96,0.97l0,0l-1.68,3.15l-4.35,1.91l-1.8,1.78l-1.14,2.47l-0.21,2.29l0.11,0.99l0.63,1.6l5.22,6.4l1.23,2.11l0.17,0.68l0.1,1.45l-0.19,1.09l-1.76,4.72l0.11,0.25l-1.03,3.09l0.03,1.95l2.07,4.36l6,14.21l0.78,1.27l-1.28,1.16l-0.62,1.24l0.76,3.64l0.05,1.32l-0.41,0.48l0.06,1.49l-0.32,0.3l0.52,1.14l1,0.13l0.54,1.59l0,0l-5.7,0.25l0.32,-0.56l0.08,-1.37l-1.95,-3.24l-2.88,-1.32l-1.04,0.2l-0.35,-0.99l-0.68,-0.63l-1.42,0.15l-1.28,0.83l-0.89,0.33l-0.73,0l-2.44,1.49l-1.04,0l-1.8,-0.35l-1.28,-0.76l-3.81,-0.68l-3.8,-1.42l-0.4,-0.1l-0.21,0.18l-0.95,-1.09l-1.73,-0.51l-1.65,-1.67l0.03,-0.38l-0.81,-1.14l0.55,-0.86l-2.55,-0.79l-0.16,-1.09l-0.25,-0.1l-0.29,0.45l-2.33,-1.11l-0.78,-0.86l-0.87,-0.03l-0.27,-0.48l-0.57,-0.28l-0.24,-0.56l-1.66,-1.14l-0.9,-1.52l-0.9,-0.56l-2.06,1.44l-1.84,0.15l-2.6,1.8l-1.25,-0.61l-0.22,0.13l0.17,1.29l-0.71,0.15l0.66,1.57l0.03,0.89l-0.9,1.67l-0.38,1.67l-0.38,0.44l-0.06,0.73l-0.41,0.41l-1.8,5.06l-1.11,0.53l-3.53,-1.06l-1.35,0.71l-0.79,0.83l-1.19,-0.08l-0.76,0.66l-1.28,0.18l-0.78,0.41l-2.69,0.18l-0.13,0.3l-0.68,-0.23l-1.68,-2.05l-1.57,-1.09l-0.19,-0.4l-2.29,-1.49l0.27,-1.09l-1.95,-0.13l-1.71,-1.11l-1.49,0.83l-1.53,0l-0.47,-0.23l-0.92,-0.76l-0.84,-2.94l-0.79,0.08l-0.73,-1.57l-1.66,-1.65l-2.42,-1.95l-1.12,-0.61l-4.86,-0.2l-0.89,0.84l-0.08,0.76l-0.95,0.56l-0.43,0.18l-1.01,-0.15l-0.73,0.28l-0.81,-0.2l-1.2,0.3l-1.17,-0.94l-0.08,-1.95l-0.55,0.08l-0.1,2.1l-0.79,-0.23l0,-0.83l-0.33,0.68l-0.19,-0.08l0.09,-0.73l-0.24,-0.08l-0.21,0.63l-0.05,0.2l1.68,0.81l0,0.2l-1.39,-0.33l-0.93,0.2l-0.05,0.43l-0.35,-0.23l-0.76,0.41l-0.82,-0.41l-0.4,-0.94l-1.39,-1.34l-0.93,0.08l-0.27,-0.46l-2.26,-1.57l-1.47,-1.39l-0.74,-0.96l-2.26,-4.31l-1.52,-2.18l-1.61,-1.55l-0.98,-0.25l-4.26,-3.12l-1.66,-2.23l-0.78,-0.43l-0.28,-0.81l-0.62,-0.36l0.22,-2.05l0.71,-1.95l3.4,-1.98l3.4,-2.72l2.53,-1.63l3.91,-2.34l1.27,-0.43l2.09,-1.6l4.3,-2.21l1.47,-0.28l1.87,0.43l1.41,-0.1l1.72,0.36l1.8,1.22l0.68,-0.03l4.87,-1.85l2.15,-0.48l0.74,-0.46l0.6,-3.1l0.09,-1.91l0.27,-0.15l-0.16,-0.58l-0.38,-0.08l-0.32,-0.38l1.14,-0.2l0.6,-0.94l3.18,-3.28l-0.24,-0.48l0.78,-0.2l0.96,-2.11l-0.51,-0.64l0.16,-0.2l0.62,-0.03l0.03,-2.88l-2.34,-0.74l-1.82,-1.5l-1.71,-2.65l-0.51,-1.55l-0.24,-1.55l0.06,-1.73l1.22,-2.85l1.31,-2.34l0.9,-0.99l0.93,-0.41l3.16,-1.04l1.71,-0.1l4.97,-2.04l4.08,-0.03l4.18,0.84l0.68,-3.16l0.68,-0.97l1.23,-0.67zm-5.53,16.36l0.54,0.13l0,0.25l-0.81,-0.23l-0.17,-0.76l-0.73,0.13l-0.71,0.51l-0.57,1.32l0.24,0.43l-4.68,3.18l-0.93,0.56l-4.57,1.6l-0.05,2.82l0.79,0.1l-0.3,1.07l-0.87,0.03l-1.31,3.18l0.32,0.08l0.52,-0.61l0.06,0.36l-1.44,1.58l1.46,0.76l-0.22,0.15l-1.36,-0.61l-0.51,0.46l0.25,1.09l-0.36,0.66l-0.14,-0.25l0.17,-0.51l-0.92,-0.76l-1.46,1.27l-0.03,0.2l0.27,0.13l-0.36,0.2l-0.11,0.74l-0.25,0.13l0.03,0.36l-0.33,0.53l-0.43,3.76l0.33,-0.1l-0.1,0.58l0.84,-0.61l0.03,0.51l1.57,-0.33l1.79,1.22l0.47,0l0.38,0.69l1.84,0.03l1.46,-0.91l1.14,0.18l0.7,-0.61l1.88,-0.05l0.43,-0.53l1.9,0.41l1.01,-0.96l2.96,-0.28l0.63,-0.58l1.25,-0.03l1.68,0.58l1.84,-0.61l0.74,0l0.62,0.79l3.05,0.56l1.69,1.8l2.61,4.55l0.52,-0.46l0.09,0.48l-0.59,0.23l0.11,0.36l0.3,0l0.22,0.91l0.65,1.19l0.36,0.1l-0.19,0.79l-1.04,0.66l-2.71,0.76l-1.77,2.39l-1.27,0.41l-0.59,-0.25l-1.16,-1.22l-0.24,-0.71l-1.49,-1.01l-2.75,0.63l-1.87,1.52l-2.61,-0.61l-0.14,0.15l-2.12,-1.24l-1.61,-0.2l-0.25,0.25l-0.22,-0.18l-4.23,2.46l-0.97,1.17l-2.31,1.57l-1.08,1.85l-0.49,0.3l-0.79,-1.78l0.44,-1.52l0.46,0.23l0.54,1.67l0.16,-0.05l-0.11,-0.63l-0.38,-0.53l-0.03,-0.58l-0.46,-0.33l-0.57,-1.95l-1.52,-2.13l1.9,-2.49l-0.16,-0.1l-0.38,0.46l-1.22,1.78l-0.65,0.15l-1.14,-0.71l-1.06,-1.22l-1.55,-0.76l-0.22,-0.51l-0.54,0.23l-0.7,-0.43l-1.25,-3.17l-0.11,-0.74l0.27,-0.13l0.13,-0.46l-1.22,0.3l-1.82,0.96l0.28,2.36l0.32,0.58l1.38,1.32l-0.08,0.51l0.9,0.89l0.11,0.46l1.35,0.58l1.82,1.47l0.57,0.15l1.41,2.94l0.95,2.82l2.12,3.12l0.62,0.53l0,0.58l0.25,-0.46l0.54,0.99l-0.35,-0.91l0.51,0.3l-0.11,-0.28l2.14,-0.43l-0.46,-0.2l-1.41,0.15l-0.46,-0.61l1.47,-0.63l0.87,-0.91l1.23,-0.25l0.08,-0.18l-0.51,-0.38l-0.11,-0.48l1.01,-1.88l0.19,-1.17l1.77,-1.14l0.76,0.05l-0.43,1.02l0.49,-0.03l0.19,-0.71l3.8,-0.08l3.23,0.43l1.28,-0.43l0.36,-0.61l0.41,-0.18l1.49,-0.23l0.25,-0.33l1.9,-0.08l0.84,0.15l1.16,0.66l0.33,0.51l-0.05,0.38l0.55,0.48l1.88,0.38l0.49,-0.23l-0.14,-0.71l0.59,-0.36l0.3,0.03l0.29,0.81l2.5,-0.69l1.41,0.48l0.36,-0.36l0.44,0.3l0.25,-0.61l0.87,-0.03l0.79,-0.51l0.97,0.43l1.28,-0.05l0.46,0.63l0.17,1.27l0.35,0.74l1.39,2l2.45,-1.07l1.84,0.33l3.53,1.27l1.57,0.79l0.32,-0.1l-0.1,1.14l0.25,0.91l0.49,0l-0.17,-2.03l1.14,0.71l0.82,0.1l0.66,1.34l0.52,0.08l0.11,0.3l1.93,1.34l0.87,0.91l1.17,-0.36l0.54,0.84l-0.32,1.06l0.36,1.17l0.33,0.2l0.38,0.76l0,0.41l-0.47,0.81l0.14,0.15l-0.27,0.33l0.35,0.35l0.33,1.06l0.41,0.2l1.11,1.6l0.24,-0.08l0.19,0.3l-0.19,0.13l1.3,2.03l0.82,0.03l1.42,3.09l1.5,0.35l3.72,2.35l0.08,-0.18l0.33,0.08l0.59,0.91l0.9,0.13l2.42,-0.41l0.81,-0.76l2.56,-1.34l0.76,-0.05l0.35,-0.46l3.05,0.53l0.47,0.25l0.3,0.48l0.78,0.23l1.74,-0.13l-0.48,-4.89l0.36,-1.22l-0.92,-6.92l-6.8,-3.07l-0.57,-0.96l-0.06,-0.61l0.89,-1.83l-1.22,-1.01l-0.3,-0.74l-1.82,-0.13l-0.57,-0.28l-0.44,0.56l-0.73,0.18l-0.25,-0.03l-0.98,-1.09l-1.33,0.51l-3.83,-0.15l-0.17,-0.23l-1.39,0.08l-0.13,-0.46l-2.72,-0.2l-0.46,-0.53l0.28,-0.43l-0.44,-0.13l0.11,-0.2l-0.24,-0.25l-0.6,0.05l-0.81,-2.16l0.24,-0.41l-1,-0.89l-0.38,0.15l-0.27,-0.3l-0.09,-1.19l-2.64,-0.48l-1.04,-0.58l0.43,-1.19l-1.01,-1.5l-1.68,-0.71l-0.63,-0.81l-0.98,-0.56l-2.17,-0.33l-0.87,-1.17l0.06,-1.32l1.01,-1.55l1.91,-0.2l-0.02,-0.2l1.06,-0.41l0.51,0.23l1.01,-0.66l0.66,0.25l2.47,-1.83l1.23,-0.08l1.14,-1.22l0.87,-0.23l0.4,0.15l0.16,-0.36l2.06,-0.64l1.25,0.41l0.84,-0.13l1.96,0.41l0.49,0.53l0.49,1.35l0.41,-0.2l0.32,0.15l1,1.02l-0.21,-0.71l1.71,0.03l2.75,-0.56l0.54,0.43l1.31,-0.1l0.19,0.18l0.27,-0.74l1.84,-0.28l0.08,-0.56l-0.73,0l-0.02,-0.2l1.04,-0.58l-0.06,-0.92l-0.74,-0.05l-0.74,0.48l-0.49,-0.28l-0.81,0.53l-4.68,-0.13l-1.53,-3.08l-1.33,-1.07l-0.55,-0.03l-0.6,-0.48l-0.13,-2.64l0.22,-0.38l0.7,0.28l0,-0.81l2.37,-2.09l1.61,0.05l2.88,0.84l1.12,0.56l0.81,0.71l2.21,0.97l2.71,1.65l-0.11,-1.32l-0.68,-1.2l-1.69,-0.99l-0.13,0.31l-0.47,0.13l-2.53,-1.58l-0.22,-0.33l0.47,-0.89l-0.09,-0.18l-0.35,-0.03l-0.73,1.02l-2.12,-0.74l0.14,-0.31l-0.32,-0.25l0.06,-0.18l0.43,0.28l2.86,-0.2l0.06,-0.51l-0.54,-0.08l0.03,-0.25l-0.33,-0.2l-1.69,0.18l-0.82,0.48l-0.1,-0.15l0.73,-0.43l1.55,-0.15l0.19,-0.41l0.21,0l0.03,0.31l0.47,0.05l0.11,-0.41l0.36,-0.23l-0.71,-1.88l-0.47,-0.36l-0.33,-0.64l-0.97,0.61l-5.55,0.84l-2.17,1.5l0.19,0.51l1.52,1.55l-0.27,0.76l-0.74,0l-0.36,0.79l0.43,0.2l-0.02,0.3l-0.25,0.31l-0.33,-0.03l-0.06,0.74l-2.17,1.35l-0.33,0.84l-1.54,1.63l-1.88,0.92l-1.49,-0.66l-1.6,0.84l-0.28,0.48l-2.14,0.79l-2.29,1.25l-2.6,0.05l-0.89,0.76l-2.66,0.17l-1.17,-0.64l-1.99,-2.08l-0.44,0l-0.98,-2.01l-0.38,-0.36l-0.25,0.03l-0.81,1.27l-0.97,0.31l0.02,-0.31l-0.84,-0.08l-0.57,0.23l-3.04,-0.94l-0.19,-0.36l3.59,-3.18l1.17,-0.46l-1.31,0.33l-3.56,3.2l-0.81,0.25l0.08,-2.42l-0.78,-1.42l0.17,-0.36l-0.41,-1.58l-0.6,-0.38l-0.79,-1.32l0.08,-1.12l-2.77,-2.62l-0.43,-0.2l-1.28,0.41l-3.91,-2.01l0.21,-0.69l-0.09,-0.84l-0.82,-1.22l-0.71,-0.38l-1,-0.15l-1.01,0.13l0.07,0.59z" fill="#b6bac1" id="NL-ZE"/>
  <path d="m156.06,478.56l1.06,0.92l0.3,-0.15l0.46,0.13l0.17,0.48l1.11,0.59l0.05,0.38l-2.9,0.13l-1.08,-0.28l-1.09,-1.2l1.53,-0.97l0.39,-0.03zm-11.84,-7.95l1.27,0.03l4.04,1l5.25,2.37l2.52,0.82l0.87,0.46l0.08,0.82l-3.66,1.43l-2.6,-0.1l-1.93,-0.48l-2.48,-1.45l-4.98,-3.42l-0.35,-0.43l0.14,-0.74l0.65,-0.38l1.18,0.07zm35.53,-147.73l10.74,4.85l1,-1.86l2.14,-0.59l0.43,-0.03l3.88,1.65l-1.28,1.86l-1.04,2.74l-0.02,0.65l-1.47,3.2l-3.13,3.17l0.29,2.04l-1.25,6.55l-1.3,1.62l-0.09,0.49l0.16,1.31l1.08,0.88l2.33,0.54l1.68,-0.57l2.36,0.93l2.25,0.28l3.24,-0.23l5.13,-2.99l3.01,-0.18l0.4,-0.26l0.21,0.15l1.16,-1.21l1.5,-0.62l3.09,0.49l-0.22,2.94l0.57,1.26l0.08,0.93l-0.19,0.46l0.92,0.7l1.23,-1.55l1.93,-1.24l1.46,-0.33l1.38,-1.08l0.92,-1.34l1.55,-0.67l1.65,0.36l0,0l0.06,1.7l1.12,1.85l-0.03,2.52l0.25,1.37l1.08,-0.05l0.32,0.8l4.53,4.99l2.39,0.85l5.3,3.68l-0.05,0.36l-3.24,1.26l0.59,4.04l-0.71,0.33l-0.08,0.28l-1.14,0.18l-3.09,-0.41l-0.89,-0.69l-0.36,-1.52l-0.92,0.49l-1.49,0.28l-1.27,0.54l-0.9,1.31l-0.32,2.06l-1.95,0.87l-0.25,1.05l5.41,3.88l-0.09,2.34l0.27,3.9l0.28,1.26l0.89,1.08l-0.06,1.36l1.57,-0.38l4.92,-0.05l-0.81,1.64l-3.31,1.21l-2.61,1.98l-2.04,3.18l-1.14,0.85l0.27,1.92l-1.39,1l0,0.92l0.44,1.44l1.77,-0.18l0.97,-0.69l2.63,0.1l1.01,-0.54l1.3,2.49l-0.14,0.33l-6.35,1.56l1.41,1.87l1.2,0.41l1.01,1.38l-0.62,0.28l1.65,2.33l1.87,2.13l1.19,0.74l0.4,1.38l1.11,0.9l1.28,5.04l1.65,-0.56l1.47,-0.13l3.09,-0.79l1.2,-1.51l1.06,-2.54l1.08,-1.13l0.89,0l2.39,0.95l1.2,0.08l0.9,-0.62l2.06,-2.92l1.44,-0.85l0.63,-0.13l1.2,0.23l2.44,1.92l1.6,-0.18l0.82,-1.13l0.41,-1.23l1.03,-1.13l2.8,-2.2l0.55,-0.82l3.02,-1.49l1.68,-0.49l1.8,0.1l1.2,0.38l1.58,0.59l2.06,1.2l0.41,0.77l0.35,2.64l0.79,1.67l1.14,0.67l2.82,0.49l1.03,0.67l0,0l-4.57,8.71l-0.46,0.1l0.13,0.64l-2.03,2.94l0.1,1.61l-0.74,-0.36l-2.2,4.07l-0.28,2.17l-0.36,0.69l-1.69,-0.41l-1.03,0.26l-0.95,-0.28l-0.44,0.36l-0.17,1.25l-1.04,1.56l-1.11,0.61l-1.91,0.03l-1.3,0.64l-0.25,0.87l0.4,0.87l1.09,0.67l-0.59,0.56l-1.79,0.72l-0.52,0.59l-1.53,-0.61l-4,0.1l-1.8,-1.58l-0.41,0.43l0.59,1.87l-0.35,1.41l0.95,1.58l3.4,0.46l-1.03,4.98l-2.37,-0.05l0,0l-5.35,-0.79l-4.6,-1.02l-2.61,0l-1.77,0.41l-3.73,1.86l-2.86,2.96l-2.45,1.76l-0.93,0.38l-1.74,0.38l-4.04,-0.61l-2.14,0.13l-2.2,0.71l-2.37,1.28l-2.45,2.91l-1.53,4.62l-0.71,1.12l-2.01,2.22l-3.5,3.11l-4.79,3.39l-9.97,2.85l-2.5,2.01l-11.87,3.26l-3.48,-0.36l-11.88,-3.97l-2.17,2.04l-1.04,0.66l-0.44,1.15l-0.89,0.03l-0.46,1.02l-1.98,1.96l-0.38,1.65l-1.08,1.78l-1.39,1.45l-1.39,0.81l-3.29,1.53l-3.12,0.66l-2.17,0.97l-3.8,0.89l-4.29,-0.51l0,0l-2.96,-0.97l-5.16,-3.56l-7.25,-5.5l-2.33,-0.25l-2.98,0.08l-2.99,-1.07l-6.96,-0.56l-1.14,-0.46l-1.39,-2.44l-0.51,-2.01l-0.24,-4.94l-2.61,-3.7l-0.63,-2.73l-0.44,-0.66l-6.04,-1.35l-2.25,-2.04l-2.93,-0.41l-3.04,0.79l-2.44,1.45l-3.21,4.08l-1.61,0.31l-4.53,-1.43l-1.31,-1.28l0,0l2.07,-1.07l0.82,-0.79l1.44,-3.75l0.43,-1.25l-0.11,-0.61l-1.61,-3.93l-0.05,-1.58l1.22,-1.89l1.41,-1.1l1.49,-0.31l2.26,-0.87l1.82,-0.05l1.36,-0.36l4.62,-2.17l4.75,-1.81l1.79,-0.46l3.26,0.05l1.58,0.74l0.68,0.64l-1.42,-0.28l-0.22,1.12l2.06,1.25l1.01,1.2l0.78,0.33l0.22,-0.23l-0.54,-0.64l0.02,-0.46l0.7,0.18l0.51,-0.38l0.28,0.21l1.58,-1.84l-0.25,-0.28l0.16,-0.28l1.22,-0.97l1.2,-0.54l0.08,-0.89l-0.71,-1.69l-4.7,-6.98l-0.4,-0.95l0.25,-1.94l0.76,-1.1l1.82,-3.89l0.52,-0.38l-0.11,-0.79l-1.2,-1.05l-0.89,-0.38l-0.59,0.97l0.03,1.1l-0.41,-0.41l-0.17,0l-0.06,0.46l-0.21,-0.08l-0.4,-0.69l-1.03,-0.33l-0.7,0.56l-0.32,-0.13l-0.84,0.51l-1.06,0.1l-0.55,-0.26l-0.3,-0.54l0.17,-1.38l2.26,-7.99l0.05,-2.1l-0.22,-0.18l-0.57,0.28l0,-1.38l0.97,-2.25l0.68,-0.51l1.12,0.18l1.12,-1.67l0.43,-0.15l1.47,0.67l0.28,-0.21l1.17,-0.03l1.08,0.69l1.98,0.79l0.95,0.79l3.34,-2.95l2.28,-1.54l1.34,-1.15l0.73,-1l0.98,-0.69l1.76,-2.97l2.01,-2.77l12.2,-14.14l3.42,-4.37l0.03,-0.39l0.38,-0.1l0.68,0.57l0.74,-1.1l-0.21,-0.13l-0.62,0.77l-0.33,-0.28l-0.05,-0.46l3.26,-3.34l1.09,-0.8l2.58,-2.8l7.04,-9.03l4.75,-6.98l6.11,-10.64l4.43,-8.25l7.54,-16.57zm-69.37,126.67l-1.55,1.89l0.27,0.26l-0.3,0.89l0.1,0.54l-0.52,-0.1l0.17,0.43l-0.25,0.28l0.22,0.2l-0.1,0.25l0.25,0.08l0.74,-0.77l1.11,0.59l1.49,1.35l5.76,2.58l1.96,1.46l4.62,2.3l3.01,2.02l4.38,1.45l-0.11,0.2l0.27,0.2l0.4,-0.1l3.45,3.77l2.12,1.84l1.87,1.27l0.38,0.82l2.72,3.36l0.76,0.69l3.48,2.19l1.49,0.31l2.58,1.83l2.77,1.07l2.09,0.38l5.79,0.31l1.11,-0.13l0.47,-0.43l0.33,-0.56l0.02,-0.89l0.44,-0.03l1,-3.34l-1.22,-0.69l-0.05,-0.33l-0.33,0.18l-6.22,-3.64l-5.51,-2.55l0,-0.23l-0.41,-0.1l-0.02,0.23l-6.61,-1.99l-3.81,-1.43l-1.17,-0.89l-1.74,-2.45l-0.19,-0.48l0.24,-0.25l0.02,-1.61l-2.41,-2.68l-2.26,-1.25l-1.42,-0.1l-0.79,0.33l-0.6,-0.26l-3.21,-3.91l-0.63,-0.33l-0.43,-0.56l-1.27,0.18l-0.98,-0.18l-0.33,0.1l-0.24,0.46l-0.4,0.05l-1.58,-0.1l-0.68,-0.51l0.11,-0.84l-0.52,-0.13l-0.32,1.05l-0.6,-0.77l-3.77,-1.33l-1.19,-1.12l-1.19,-1.87l-2.26,1.07l-0.49,0.64l-0.31,-0.17z" fill="#b6bac1" id="NL-ZH"/>
 </g>
</svg>